<svg xmlns="http://www.w3.org/2000/svg" width="1995.22" height="1534" viewBox="0 0 1995.22 1534">
  <metadata><?xpacket begin="﻿" id="W5M0MpCehiHzreSzNTczkc9d"?>
<x:xmpmeta xmlns:x="adobe:ns:meta/" x:xmptk="Adobe XMP Core 5.6-c142 79.160924, 2017/07/13-01:06:39        ">
   <rdf:RDF xmlns:rdf="http://www.w3.org/1999/02/22-rdf-syntax-ns#">
      <rdf:Description rdf:about=""/>
   </rdf:RDF>
</x:xmpmeta>
                                                                                                    
                                                                                                    
                                                                                                    
                                                                                                    
                                                                                                    
                                                                                                    
                                                                                                    
                                                                                                    
                                                                                                    
                                                                                                    
                                                                                                    
                                                                                                    
                                                                                                    
                                                                                                    
                                                                                                    
                                                                                                    
                                                                                                    
                                                                                                    
                                                                                                    
                                                                                                    
                           
<?xpacket end="w"?></metadata>
<defs>
    <style>
      .cls-1 {
        fill: #061043;
        fill-rule: evenodd;
      }
    </style>
  </defs>
  <path id="Color_Fill_1" data-name="Color Fill 1" class="cls-1" d="M841,0l1,2h-1V0Zm20,0,3,1Zm5,0c4.107,0.953,4.239,2.085,7,4l-2-4h186V4c0.33-.333.67-0.667,1-1,1.85-1.821-.6-2.755,6-3,1.97,2.843,13.55,4.987,18,2-1.33-.667-2.67-1.333-4-2,15.08,2.474,22.55,6.02,46,6a36.361,36.361,0,0,0,3,4c3.14-1.065,15.24.834,18,1,0.44-2.714,1.57-2.025,7-2,18.31,8.974,46.87,8.556,61,15,3.5,2,1.22,1.948,4,4V27c0.31-.679-0.23-0.3,1-1,3.59,1.424,12.93,1.309,19,1l55,16v1h-2c5.31,4.109,18.85,7.524,25,7,0.2,2.744,1.52,5.34,7,6,19.05,6.319,42.94,13.8,63,22l55,27c0.03-2.236-.89-0.8,1-2,0.33,0.333.67,0.667,1,1v2h4c0.48,4.282,12.68,8.254,20,12,19.38,9.923,37.16,21.107,57,31v1h-2c-1.67-1-3.33-2-5-3v1c0.33,0.333.67,0.667,1,1,17.33,8.013,37.44,21.232,49,33-1.18-2.99-2.38-3.665-4-6h2c2.63,2.993,6.58,8.888,8,10h4c0.71,6.435,15.44,15.175,23,18q-10.995-8-22-16h2c8.73,7.971,24.53,14.13,31,21,9.4,9.975,20.07,17.5,31,26q6.495,7,13,14c5.66,3.994,10.04,5.376,14,11,1.66-.871.62-2.761,2-1,1.64,2.286,2.94,6.181,7,9-1.61-2.348-2.78-3.033-4-6h1v1q8.505,9.5,17,19c17.69,13.525,42.44,36.037,55,54q2.505,5,5,10v-1c0.67,0.667,1.33,1.333,2,2,0.33,1,.67,2,1,3h2c10.13,11.927,27.31,26.8,38,41,19.09,25.361,32.2,50.024,49,76,4.04,6.252,31.35,37.971,27,45,12.4,21.5,29.67,45.408,39,69h-1q-5.505-9-11-18h-1v2c11.82,11.156,15.43,30.352,21,45,1.02,2.687,6.11,7.812,8,12,7.89,17.514,10.97,34.242,17,53,5.41,16.812,14.6,37.4,21,55q1.5,14,3,28c3.75,10.946,12.53,39.671,15,43h-3c2.59,5.083,6,29,6,29-0.67.667-1.33,1.333-2,2,6.99,11.506,3.95,30.795,8,42-2.63.848-1.12-.688-2,2,3.94,4.86,2.23,22.246,4,32h-2v5h3c-0.33,1-.67,2-1,3h-2c7.47,6.069,2.99,34.282,4,47,1.65,20.777,2.41,61.32-3,84-2.54,10.64.27,32.56-3,49-1.91,9.59-10.25,55.35-8,63-13.43,30.5-13.11,63.77-24,98-20.33,63.91-44.73,126.66-78,182-13.06,21.72-25.43,42.61-39,63-6.46,9.71-11.23,24.93-22,30q-154.485.495-309,1v-3c15.26-15.66,24.75-47.79,24-66,0,0,4.06-15.7,4-18-0.49-19.75-5.02-50.23-15-67-15.25-25.63-39.17-47.26-65-64-15.94-10.33-34.64-14.04-52-23-14.41-7.44-29.94-28.73-41-33v1c1.46,1.42,1.01.76,2,3h-1l-2-2v1c2.45,2.07,7.92,13.56,7,15a146.159,146.159,0,0,0,15,16v-1c0.31-.68-0.23-0.3,1-1,10.32,19.09,38.42,29.69,52,39h3c1,6.44,14.12,8.56,19,12,8.12,5.73,15.98,16.8,21,26h1v-2c-1.46-1.42-1.01-.76-2-3h1l1,1,3,6h-3c19.6,12.6,30.45,76.5,26,100-1.45,7.67-3.82,10.16-3,15,1.14,6.74-12.89,33.58-16,39-0.76,1.33-4.24,8.67-2,9h-44v-2c22.41-3.71,14.38-30.56,17-53h-1c-0.33.67-.67,1.33-1,2v-5l3-33c-1.33-.67-2.67-1.33-4-2-0.28,5-2.02,5.49-1,12-2.85.45-1.36-.43-2,4,2.75,18.39-17.29,38.24-31,44-4.24-2.17-34.51.83-40,2-3.14,5.01-4.32,7.34-4,12h2c-0.33-1-.67-2-1-3,5.01-.59,4.78-3.45,13-4,14.73,10.93,23.34,1.91,38,4,0.33,3,.67,6,1,9-3.4,5.65-2.98,7.58-4,13H401c-1.408-2.71-1.923-4.2-2-9,2.248-5.65,4.083-53.62,2-68-4.818-33.26-7.9-86.86-5-111q-0.5-19.995-1-40c7.646-36.75,20.858-80.05,37-113,3.453-7.05,22.537-33,20-39,6.423-13.74,24.9-20.9,28-37,2.676-13.88-8.9-36.01-13-47-3.21-8.61-4.26-24.36-4-34l-6-21c-5.414-20-4.255-36.224-9-53-2.958-10.458-2.829-38.007-2-55,0.292-5.99-1.172-11.767-3-20l3-22s-5.536-20.123-5-25v-1c-0.637-3.294,1.961-24.1,3-28,1.461-5.483-.85-46.868-1-47,2.747-3.918,4.718-10.206,4-19q2.5-13,5-26,2-15.5,4-31c4.878-20.363,8.866-35.888,15-55,5.02-15.64,5.942-39.895,13-51,5.86-9.22,10.18-30.678,14-41l-1-3c5.818-7.74,11.015-15.668,15-26q1-5.5,2-11c16.166-30.771,28.435-39.153,18-81h1l2,2q-1-2.5-2-5l-2,2v-1q-0.5-1.5-1-3c3.212-1.629,3.011-2.258,4-6l2,1v-1c-3.41-8.169,9.166-40.106,12-48,4.8-13.363,14.211-31.541,25-42l29-13c3.807-3.47,2.988-9.525,6-14,4.291-6.375,18.382-19.57,26-22,3.5-1.118,8.829-.117,13-2l-2-1c16.074,0.525,17.726-24.07,29-32,15.41-10.839,49.444-8.964,65-9,1.08-3.409,1.86-4.828,2-10-8.871-11.732-5.231-49.561-1-57v1c1.471,2.507-.614,1.868,2,4v-5c-2.748-2.287-1.633-2.282-1-6,1.953,0.432.619,1.446,2,0q0.5-1.5,1-3h-1q-0.5,1-1,2v-3l1-1,2,1q-0.5-1.5-1-3l2,1v-7h-2c-7.851-4.291-17.32,5.417-24,4-17.042-3.616-73.722,24.612-91,32-20.794,8.891-41.813,11.989-62,22-19.466,9.653-34.489,22.526-51,33-11.526,7.312-19.8,9.439-28,14-27.281,15.169-51.309,39.722-76,58-18.336,13.574-60.269,43.468-67,63l-2-1v2c-15.149,11.951-29.008,30.6-41,48l-24,24c-11.412,16.115-23.368,32.065-37,46-3.086,3.154-18.52,28.646-17,31l-16,17-26,53c-9.689,16.259-41.87,91.613-40,105-8.327,2.455-4.914,20.885-9,28l-4,1q-2,9.5-4,19c-7.682,19.25-8.5,40.174-15,61-6.5,20.846-17.659,56.028-11,76-9.346,28.293-13.169,78.1-6,110,1.814,8.075-.938,18.73-2,24q2,34.995,4,70c3.961,17.21,11.757,34.93,17,50v11c5.193,18.17,6.557,32.85,15,51-1,.33-2,0.67-3,1,1.455,0.45,1.7,2.53,2,4-0.667.33-1.333,0.67-2,1,11.71,14.44,9.053,33.88,16,52,4.645,12.12,13.217,28.75,17,43h-2c5.93,4.54,14.7,36.68,21,47,8.178,13.4,18.472,28.04,25,43,2.188,5.02,2.414,11.26,6,17,15.341,24.56,38.034,51.92,48,75,2.786,1.38,1.512-.91,3,2,1.023,1.15,1.268,3.01,4,5v-1c0.313-.68-0.23-0.3,1-1v1c9.684,11.18,31.835,37.88,37,51h-1c-4.961,4.21-21.451,2-30,2H186c-3.845-12.75-9.984-21.9-17-32l-12-9c-6.23-7.77-7.383-17.33-13-26-4.735-7.31-12.134-15.54-17-23l-25-49h-1c-14.321-19.58-20.068-44.21-27-69-5.324-19.04-15.655-38.22-23-57-4.918-12.58-5.049-25.56-10-37-5.168-11.94-24.5-55.2-22-69-8.238-1.31-10.275-43.22-15-57-5.717-16.67-4-46.1-4-69V919c0-24.32-.634-48.4,3-59,4.6-13.416-9.367-35.766,2-43l1,2c-0.766-15.934,11.518-47.492,5-61,2.462-5.671,8.574-20.221,11-28l-1-11c6.51-10.322,13.585-41.451,21-61l3-16c4.489-9.052,13.709-29.165,20-42l3-16c6.709-15.866,20.217-31.311,28-47,11.905-24,17.836-40.515,31-61,3.231-5.028,7.879-25.208,12-28,1.419,2.213-.181.566,2,2v-2c-1.307-.54-0.834-0.741-1-1l1-2,2,2c0.51-2.347,7.385-10.517,9-13v1c2.44,1.128,1.48-.992,2-2,6.4-5.071,8.295-14.153,13-21,9.489-13.809,21.144-28.744,32-42,22.917-27.983,53.054-56.2,75-79,9.215-9.574,17.177-23.316,28-31,9.153-6.5,18.484-11.8,27-19,7.659-6.478,15.9-16.928,23-21h2c4.7-4.231,18.829-21.4,26-22v-1c0.313-.679-0.23-0.3,1-1l1,1v-1c0.313-.679-0.23-0.3,1-1h3c0.529-3.7,31.635-26.854,37-26v-1c-0.33-1.8.509-.577,4-1,2.784-7.126,13.024-11.554,16-11v-1c0.313-.679-0.23-0.3,1-1,3.709,0.2,8.565-3.684,11-4v-1s-0.09-.326,3-1c1.376-8.2,26.661-14.909,32-20,2.112-1.624-.684-1.109,2-2,2.184,1.673,9.09-6.653,13-9,10.937-6.566,28.58-16.884,42-22,18.868-7.192,43.313-17.083,63-26l15-2c5.838-3.119,14.285-9.091,21-11,1.355-.385,5.9.677,9-1,16.138-8.719,51.486-24.338,70-25l-1-2h2c1.776,0.8,46.283-7.135,54-12l20,2c3.527-11.637,31.654-2.833,44-9l-4-2,6,1-1-2h5c0.968,2.27.552,1.577,2,3V8l-1-3h4l6-1-1-2h2l2,2,1-3,4,2V2Zm203,0h2V1C1070.33,0.667,1069.67.333,1069,0Zm6,0h2C1075.52,1.346,1076.78.919,1075,0Zm-13,1V3C1063.35,1.521,1062.92,2.777,1062,1ZM837,6c0.843,1.814,1.82,1.17,0,2V6Zm-8,2h2V9Zm3,0,3,1C833.973,9.759,831.838,10.32,832,8Zm328,5h0Zm5,1c0.67,0.333,1.33.667,2,1C1166.33,14.667,1165.67,14.333,1165,14Zm24,6c0.67,0.667,1.33,1.333,2,2C1190.33,21.333,1189.67,20.667,1189,20Zm20,1,3,1Zm18,9c0.67,0.667,1.33,1.333,2,2C1228.33,31.333,1227.67,30.667,1227,30Zm31,7c0.67,0.333,1.33.667,2,1C1259.33,37.667,1258.67,37.333,1258,37Zm6,2c0.67,0.333,1.33.667,2,1C1265.33,39.667,1264.67,39.333,1264,39Zm30,4c0.33,0.667.67,1.333,1,2h-1V43Zm3,2h2v1h-2V45Zm2,1,3,1Zm3,1c3.51,0.254,4.96.6,7,2h-4Zm7,2h2v1C1310.33,49.667,1309.67,49.333,1309,49Zm64,22h2v1h-2V71Zm-18,1c0.67,0.333,1.33.667,2,1C1356.33,72.667,1355.67,72.333,1355,72Zm20,0h2v1h-2V72Zm-16,1c0.67,0.333,1.33.667,2,1C1360.33,73.667,1359.67,73.333,1359,73Zm6,1h0Zm20,3h2v1C1386.33,77.667,1385.67,77.333,1385,77Zm3,1,4,1v1C1388.87,79.245,1389.73,79.653,1388,78Zm5,3h2v1h-2V81Zm2,1h2v1C1396.33,82.667,1395.67,82.333,1395,82Zm4,2h2v1C1400.33,84.667,1399.67,84.333,1399,84Zm4,2h2v1C1404.33,86.667,1403.67,86.333,1403,86ZM968,102c-10.932,6.7-29.193-1.076-47,3-7.655,1.752-18.854,4.933-30,2-11.758,3.394-35.237,7.206-43,6-0.1.581-12.723,22.6-14,25q-1,6.5-2,13c-9.323,27.857.693,49.742,19,63v-1c0.313-.679-0.23-0.3,1-1l5,1c12.284-16.508,31.661-25.746,49-13l16,18c8.364,6.142,17.389,7.814,29,11,8.24,2.261,21.1,5.769,25,4,9.987-7.737,15.863-24.371,23-35,12.05-17.938,53.11-61.424,54-85-0.33-.667-0.67-1.333-1-2C1022.12,99.244,996.1,105.142,968,102Zm113,2c-4.93,2.351-8.49,1.116-11,6l-3,8c9.41,8.5,11.63,34.684,11,49h-2c10.1,15.142,2.68,55.3,6,70h-3c3.94,4.581-.05,12.2-2,13h-1c2.54,2.614.28,0.828,1,5h-2c1.16,3.268-.78,10.543-3,16-0.67-.333-1.33-0.667-2-1v1c0.33,1,.67,2,1,3-1.89.564-8.1,14.062-8,23,5.14,6.805,6.87,17.625,15,22,5.81,3.128,13.74-.3,19,5,0.33,0.333.67,0.667,1,1h-2c-0.67-.667-1.33-1.333-2-2v1c0.33,0.333.67,0.667,1,1,25.55,6.452,47.82,37.44,63,55h2v2l3,1c-0.43,1.953-1.45.619,0,2,2.29,3.443,4.6,5.291,5,8,4.15,1.044,14.28,8.548,17,17h-1q-4.005-4.5-8-9v1h1c4.21,7.765,11.32,10.754,18,16,16.94,13.307,32.94,37.388,49,49v-1c0.31-.679-0.23-0.3,1-1,0.33,0.333.67,0.667,1,1-0.33.667-.67,1.333-1,2,2.31,0.033,2.17-.109,5,1-0.33.667-.67,1.333-1,2,2.31,0.033,2.17-.109,5,1-0.33.667-.67,1.333-1,2,6.76,0.125,14.59,7.351,22,10,13.71,4.9,23.15.838,33,2,0.26-3.152-1.33-.858,1-3,9.63,2.743,16.8-12.3,30-13,8.92,24.581-25.12,49.255-41,55,0.44,6.638,2.64,20.166,7,25h1q4.005,7,8,14h-1l-3-3v1c6.65,6.053,10.04,16.291,15,24,10.33,16.043,25.79,35.29,44,49,8.4,6.322,19.76,17.264,35,16h19c-0.33-.667-0.67-1.333-1-2h2l3,1c-0.33-.667-0.67-1.333-1-2h2c0.67,0.333,1.33.667,2,1-0.67-.667-1.33-1.333-2-2h4c2.11-1.624-.68-1.109,2-2,0.33,0.333.67,0.667,1,1v-1c-0.33-.333-0.67-0.667-1-1h2l7-1v5c-1.74,2.028-3.09,6.074-4,10-11.77,4.613-21.53,12.153-36,16-10.3,2.738-24.36-2.152-30,0-5.07,1.435-5.98,2.4-6,9q2.505,5.5,5,11c11.25,16.762,32.1,24.023,54,29h13v-1c-0.33-.333-0.67-0.667-1-1h2c10.41,4.407,23.53-17.025,32-26,3.62,1.448,8.96,2.189,10,4,7.47,9.987-.94,23.454-5,29-21.37,29.192-42.91,48.072-93,50-8.79.339-26.49-3.966-35-10-3.63-2.576-12.05-2.363-21-5-6.22-1.831-5.01-4.634-9-7-7.47-4.43-15.22-4.623-23-9-18.7-10.517-34.59-26.825-51-40q-9.495-11.5-19-23c-12.69-15.907-42.11-23.133-65-17-1.33,2-2.67,4-4,6-1.56,9.077,1.18,20.749-1,27-2.65,7.625-10.21,22.072-6,31a11.753,11.753,0,0,0,4,6c2.67,1,5.33,2,8,3,0.33,1.333.67,2.667,1,4-0.33.333-.67,0.667-1,1-18.24.564-31.83,9.3-42,21,0.26,7.065,2.57,8.857,1,14,2.85,0.452,1.36-.426,2,4,2.17,12.017,15.56,13.116,27,19,11.4,5.862,42.92,28.745,49,39l3-1v3c5.76-.857,17.33-2.593,25-1v7c-3.33,1.5-7.28,4.039-6,7,6.35,14.152,20.37,24.937,32,34,27.12,21.13,46.25,48.354,89,52v-2h-8l-16-4c-0.33-.333-0.67-0.667-1-1h2c10.48,5.29,29.99.618,41,6v-1c-0.33-1.8.51-.577,4-1,21.42-11.6,41.27-21.2,45-52,0.67,0.333,1.33.667,2,1v-4c1.67-.333,3.33-0.667,5-1,7.83,10.138,8.04,26.037,9,33,0.11,0.829,2.34,9.686,3,13q-1.005,10.5-2,21c-20.19,35.849-61.95,60.79-113,47v1c1.67,1.74,1.19.894,2,4h-1c-1.32-2.01-.81-1.71-3-3v1c2,1.67,4,3.33,6,5-0.67-1-1.33-2-2-3h2c4.61,7.52,45.17,41.95,54,43,15.9,5.74,36.96-11.13,51-16,33.55-11.64,100.46-24.22,122-18-0.33-1-.67-2-1-3h1c4.76,4.76,12.4,2.26,17,3v-1s-0.09-.33,3-1v1c-0.67.33-1.33,0.67-2,1h5q17.505,0.5,35,1c18.82,2.86,35.61-3.3,61,4v-1c-2.01-1.32-1.71-.81-3-3h1c11.3,5.69,40.73,3.92,46,3l5,5v-1a10.915,10.915,0,0,1,2-1c15.75,8.74,33.18,5.37,55,15,17.11,7.55,34.73,20.65,50,28-0.33.67-.67,1.33-1,2,22.53,3.92,47.29,53.53,66,54,0.67-.33,1.33-0.67,2-1,3.35-7.87,8.43-70.18,6-80,0.67,0.33,1.33.67,2,1v-15h1c0.97,2.27.55,1.58,2,3v-2c-0.67-.33-1.33-0.67-2-1s-1.33-.67-2-1c-0.33-.67-0.67-1.33-1-2,0.67,0.33,1.33.67,2,1-0.67-1-1.33-2-2-3h2l1,1-3-6h2c0.33,1.33.67,2.67,1,4h1v-3c-3.45-3.6-4.05-3.18-4-11,5.85-13.192-3.89-60.549-3-82,2.63-.848,1.12.688,2-2-5.84-11.525-3.67-25.414-5-39h1c0.33,0.667.67,1.333,1,2v-7c-5.55-10.67.57-25.739-3-40-2.47-9.867-6.16-25.275-9-37-3.88-.653-2.2,1.167-3-3,1.34-3.246-1.79-11-3-15,2.85-.452,1.36.426,2-4-5.2-4.674-9.53-17.164-8-25-2.56-.778-1.33.543-2-3,0.33-.333.67-0.667,1-1h-5c4.19-15.811-11.28-40.723-16-54h1c1.33,2.333,2.67,4.667,4,7h1c-6.32-21.322-20.61-42.415-29-62-5.41-12.627-10.35-29.449-17-44-2.96-6.471-8.81-8.4-11-17,2.24-.027.8,0.886,2-1-6.29-3.556-15.64-33.9-23-43-8.19-10.128-18.63-23.058-27-35-2.78-3.968-2.12-8.788-5-13-2.33-1.333-4.67-2.667-7-4v-7c-9.67-14-22.24-25.662-30-37h2c0.67,0.667,1.33,1.333,2,2-5.37-7.7-13.32-10.9-18-20-3.09.9-1.58,1.943-4,1l-3-3h2c0.33,0.333.67,0.667,1,1-1.38-3.611-1.53-5.281-5-7-0.7-.666-1.29.506-4-1v2a16.988,16.988,0,0,1-3-10c-7.08-1.249-7.14-6.093-13-9v-4c-0.33,1-.67,2-1,3v-1c-0.97-1.154-3.8-6.13-5-7,0,0-20.07-23.669-29-30v2c-0.33-.333-0.67-0.667-1-1-1.67-.667-3.33-1.333-5-2,0.04-2.18-.16-5.941-1-8-2.33-1-4.67-2-7-3-0.33-2-.67-4-1-6-5.83-.544-17.28-9.463-21-13,0.67-.333,1.33-0.667,2-1-0.33-.333-0.67-0.667-1-1-1.95.432-.62,1.446-2,0h-1c0.67-.667,1.33-1.333,2-2-7.67-1.339-13.99-7.419-18-10l-3-8v2c-0.33-.333-0.67-0.667-1-1-1.33-1-2.67-2-4-3,0.33,0.667.67,1.333,1,2h-2c-3.61-9.9-19.34-14.974-26-22-3.43-3.617-5.29-8.763-9-12l-14-3c-2.81-1.42-12.76-9.421-16-12,0.33,0.667.67,1.333,1,2h-2v-4c-6.28-4.456-11.75-1.835-17-8h2c0.33,0.333.67,0.667,1,1-10.41-9.683-33.84-12.069-44-22-22.65-22.14-64.47-29.706-92-52l-23-4c-0.67-.667-1.33-1.333-2-2,0.67-.667,1.33-1.333,2-2l-18-3c-2.83-2.328,1.2-3.388-3-6-0.33-.333-0.67-0.667-1-1,0.33,0.667.67,1.333,1,2h-2c-2.93-3.35-48.61-10.5-61-15-5.31-1.929-8.14-6.279-14-8-16.19-4.753-38.99-8.972-55-16h-12c-17.1-3.586-33.45-5.93-44-3C1101.24,113.987,1089.58,105.127,1081,104Zm361,2h2v1C1443.33,106.667,1442.67,106.333,1442,106Zm-393,5c1.67,1.736,1.19.894,2,4a30.4,30.4,0,0,1-1,6h-2v-2C1050.17,116.125,1049.74,114.907,1049,111Zm125,4c0.67,0.667,1.33,1.333,2,2C1175.33,116.333,1174.67,115.667,1174,115Zm61,17c1.49,2.59,1.14,2.606,4,4l7,1c0.33-.667.67-1.333,1-2C1241.54,136.248,1239.87,135.061,1235,132Zm262,3h2v1C1498.33,135.667,1497.67,135.333,1497,135Zm-249,1q4.005,2,8,4v-1C1253.33,138,1250.67,137,1248,136Zm251,0,3,1h-3v-1Zm3,1h2v1C1503.33,137.667,1502.67,137.333,1502,137Zm2,1,3,1v1C1504.73,139.032,1505.42,139.448,1504,138Zm-247,1c1.74,1.672.89,1.193,4,2v-1Zm-517,1h2v1Zm767,0c2.33,1,4.67,2,7,3v1h-2C1510.33,142.667,1508.67,141.333,1507,140Zm-765,1h2v1Zm2,1q0.5,1,1,2h-1v-2Zm771,2h2v1C1516.33,144.667,1515.67,144.333,1515,144Zm5,3h2v1C1521.33,147.667,1520.67,147.333,1520,147Zm3,4c1.67,0.667,3.33,1.333,5,2v1h-2Zm-717,1c1.1,2.1,1.3,1.9,2,5h-1v-2l-1,1h-1c1.622,2.432,2.333,5.933,4,9q0.5-5.5,1-11Zm722,2h2v1C1529.33,154.667,1528.67,154.333,1528,154Zm-787,2v2l1-1h1Zm62,3c1.179,4.754.856,0.251-1,5,3.039,0.836,2.084.712,4,2v-6Zm0,6-2,3c1.07,2.77,1.373,2.179,2,6h-1q-0.5-1.5-1-3c-0.168,7.057-.707,6.061-2,11h1c0.214-.977.136-0.5,1,0l1,1c-2.27.968-1.577,0.552-3,2h3l-3,3c1.457,1.417,1,.764,2,3h-2c3.682,4.544.366,36.4,0,45-3.541,2.26-5.378,3.074-12,3h-3v2l-4,1q0.5,1.5,1,3c4.114,3.786,11.152,9.577,17,11l7-4c0.227-3.891,4.592-11.311,6-17C814.85,219.442,804,166.665,803,165Zm5,1q0.5,2.5,1,5Q808.5,168.5,808,166Zm-4,1c1.814,0.843,1.17,1.82,2,0h-2Zm276,3c0.33,0.667.67,1.333,1,2h-1v-2Zm-278,8q0.5,1,1,2h-1v-2Zm769,3c0.33,0.667.67,1.333,1,2h-1v-2Zm-766,8q0.5,1,1,2h-1v-2Zm1,4q0.5,1,1,2h-1v-2Zm24,0v2h1Q830.5,194,830,193Zm1,3v2h1v-2h-1Zm-28,5c1.457,1.417,1,.764,2,3h-1v-1Q803.5,202,803,201Zm9,5q0.5,4.5,1,9Q812.5,210.5,812,206Zm268,2v2h1v-2h-1Zm-276,6h2v2h-1Q804.5,215,804,214Zm9,4q0.5,1.5,1,3v-3h-1Zm268,3c0.33,1,.67,2,1,3h-1v-3Zm-196,3,3,4v-1c0.313-.679-0.23-0.3,1-1v1q7.5,9,15,18c2.249-2.069,1.959-.289,3-3C899.2,233.919,893.989,225.725,885,224Zm744,7c0.67,0.667,1.33,1.333,2,2C1630.33,232.333,1629.67,231.667,1629,231Zm-823,6c1.1,2.853-.615,7.566-2,11h-1v-3Zm92,0h2v1Zm180,3v2h1v-2h-1Zm-357,2q0.5,1.5,1,3c3.992-.144,2.687-0.552,6,1v-2C724.954,243.049,724.982,242.538,721,242Zm-4,3a18.162,18.162,0,0,0-2,8l3,1h1c2.257-2.024,4.388-3.283,6-8h-5Zm71,0h2v2C788.413,246.671,787.133,247.692,788,245Zm-70,2h2C718.521,248.346,719.776,247.919,718,247Zm937,0h2v1C1656.33,247.667,1655.67,247.333,1655,247Zm-942,1c-1.037,4.022.376,2.825-3,5q1,2,2,4l4,2v-2h3l-2-1-4-1,1-1Q713.5,251,713,248Zm945,1c2.66,1.091,2.42,1.07,4,3,0.33,0.333.67,0.667,1,1C1660.04,251.826,1659.69,251.259,1658,249Zm-866,1,9,3v1h-2C796.432,252.441,793.963,252.109,792,250Zm698,0c1.67,1.736,1.19.894,2,4h-1v-2C1490.67,251.333,1490.33,250.667,1490,250Zm-778,6h2v1h-2v-1Zm193,1c-3.09,2.32-4.538,1.63-9,1-0.778,2.557.543,1.331-3,2l-1-1q0.5,1,1,2h-2l-6-1v1l2,1-4-1c-0.331,2.728-1.369,2.581-1,7h-2c0.028,2.4.066,2.007-1,5l4,5c10.317,6.45,53.193-1.688,70,4l-2-2c5.716,0.093,7.421,1.232,11,3v-1c0.313-.679-0.23-0.3,1-1,1.417,1.457.764,1,3,2q-0.5-1-1-2h2c0.939,1.081,11.941,4.3,15,3-3.021-.538-3.251-0.632-5-2l9,3-3,1,6,1q-0.5-1-1-2h2c4.966,6.628,38.66,12.253,45,17v-1c0.31-.679-0.23-0.3,1-1,1.56,2.837,1.64,1.08,4,3v-3c-10.66-4.349-19.69-14.47-30-14v-2c-2.91,1.006-35.31-15.973-44-18-11.439-2.668-16,1.889-24-1q0.5,1,1,2h-2c-4.518-2.042-5.968-.422-13-3v2l5,1v1h-2c-1.91-1.139-2.486-.689-5-2-0.452,2.855.426,1.357-4,2l-4-3q0.5,1,1,2h-2v-5h1c2.07,2.792,3.582,3.479,7,5C919.426,260.652,916.121,256.769,905,257Zm0,1,7,1v2h-1C908.73,259.765,906.62,260.03,905,258Zm33,1,2,1Zm-24,2v5l-1-1-1-1C913.457,262.583,913.005,263.236,914,261Zm-27,1,3,1Zm-3,1h2v1Zm12,0h2v1Zm41,0c1.736,1.672.894,1.193,4,2v-1Zm-35,3,3,1Zm9,0q0.5,1,1,2C910.185,267.609,909.284,266.363,911,266Zm-24,1h2C887.521,268.346,888.776,267.919,887,267Zm21,1h2v1Zm-5,1h2v1Zm2,1q0.5,1,1,2h-1v-2Zm18,0,3,1Zm757,0c2.96,1.174,3.31,1.741,5,4,0.33,0.333.67,0.667,1,1C1682.78,273.737,1681.81,272.535,1680,270Zm-782,3,2,3h-2v-3Zm-20,1v3l4,3C880.869,277.948,879.668,275.57,878,274Zm7,0q0.5,1,1,2h-1v-2Zm18,0,3,1Zm-222,1q-0.5,2-1,4h1v-4Zm4,1c0.251,4.429-1.734,7.5-5,11,1.679,3.305,2.57,3.9,3,9h-1v-1l-4-9c-0.767,18.558-.942,26.694,4,50,2.017,9.514-3.509,23.514-2,32h2v-3c1.343,1.181,3,3.421,4,2l5-3c-0.355-2.352,1.29-3.148,2-6,2.787-11.193-1.507-25.477-3-34h1v2c1.528,2.1,1.887,5.333,4,7v-1q-3.5-21-7-42c2.718-.447,1.871-0.707,2-6-3.039-.836-2.084-0.712-4-2v-2h1l2,3Zm384,1c0.33,0.667.67,1.333,1,2h-1v-2Zm619,0h2C1688.52,278.346,1689.78,277.919,1688,277ZM679,281q0.5,1.5,1,3v-3h-1Zm142,1c-3.736,10.5-12.669,12.645-13,27h2c0.778-2.557-.543-1.331,3-2l1,1v1h-2c3.108,2.972,4.92,5.887,9,8a127.923,127.923,0,0,0-8-11h3c2.625,2.163,3.1,4.011,4,8,2.588-1.411,2-1.117,6-2l-1-1c-0.3-2.732.741-.36-1-3,4.742-.126,2.163.393,6-1q-0.5-10.5-1-21Zm6,0,3,3Zm189,6h2v1C1017.33,288.667,1016.67,288.333,1016,288Zm2,1h2v1C1019.33,289.667,1018.67,289.333,1018,289Zm532,0c1.57,1.954,1.37,1.871,4,3C1552.67,291,1551.33,290,1550,289Zm-838,3c0.85,3.5.888,0.841-2,3,2.258,3.332,4.8,12.107,3,16-0.485-5.2-1.571-10.677-4-14v3c8.93,12.259,3.67,24.666,10,35h-3c4.471,3.209,3.449,12.725,3,18l-3,4-3-2c0.969,18.227-20.351,26.9-33,37-22.506,17.966-58.178,30.541-59,67l3,5h2c10.453-13.672,29.79-28.007,38-43h2c3.16-3.509,4.176-3.027,6-8,1.953,0.432.619,1.446,2,0,33.491-31.364,64.367-41.732,45-107h2v1l4,5C721.284,302.76,722.339,296.483,712,292Zm-28,1h2q-0.5,2-1,4Q684.5,295,684,293Zm30,2c4.821,1.093,5.12,2.068,6,7h-1v-2Q716.5,297.5,714,295Zm102,3,3,1v1h-3v-2Zm-3,2c1.457,1.417,1,.764,2,3h-1v-1Q813.5,301,813,300Zm15,2q0.5,1,1,2h-1v-2Zm-12,2h2v1Zm-130,1q0.5,1,1,2h-1v-2Zm-43,1v2c-3.152.256-.858-1.326-3,1a42.6,42.6,0,0,1,7,9h-2l-3-6h-2v1c3.556,3.423,4.914,9.112,5,16l-1,1c-8.814.457-19.739-5.338-29-4v1l8,10c0.419,13.792-20.261,43.792-30,51-6.808,5.039-17.41,12.326-19,22,1.522,1.978,1.591,2.421,2,6h-1c-1.419-2.213.181-.566-2-2l-4,17h-2v4q-0.5-2.5-1-5h-1q-1,9-2,18l1,1h1q0.5-3.5,1-7c0.327,9.258.125,18.861-4,21-0.7-3.7.287-2.193-2-4l1,1c0.522,6.013,1.951,18.655-4,26q2-11,4-22l-1-1h-1c-2.324,25.171-20.749,47.411-22,76h-3c0.558,0.938.9,2.894,2,5-3.141.363-1.15-1.564-3,1h2l1,1c0.967-2.03.906-1.5,2-3-2.013-1.321-1.707-.81-3-3,3.859-.427,2.956-2.531,7-5l1-1v2l-2,3h1v-1c11.216-14.077,14.387-34.03,19-51h2v2l2-1c0.15-2.031,3.723-17.292,7-20l1,1c-1.475-2.837-2-4.946-2-10h1c1.419,2.213-.181.566,2,2v-2c-2.27-.968-1.577-0.552-3-2h2l1,1c-4.848-12.5,7.689-31.374,11-43,4.875-1.056,7.713-2.146,11-6,1.656-3.093,2.019-6.494,4-9,3.255-.086,41.09-37.2,50-41l1,1v-3l3,1v-2l6-3q-0.5-1-1-2c3.152-.256.858,1.326,3-1-6.526-7.142-14.3-19.9-17-30h1v1c1.5,2.11,2.116,4.283,4,6q-0.5-3-1-6h2q0.5,1.5,1,3c-0.71-6.533-2.182-6.67-1-13C648.614,310.656,646.576,307.986,643,306Zm179,0c0.843,1.814,1.82,1.17,0,2v-2Zm-1,2,3,4h-2v-2Q821.5,309,821,308Zm755,2c1.51,1.711,2.69,1.952,4,4-2.24.027-.8-0.886-2,1l4,1v-3Zm6,1c0.67,2,1.33,4,2,6l3,1v-1C1583.89,315.291,1584.24,313.288,1582,311Zm-669,5c-0.111,2.913-.011,1.166-4,2v4l3,1,41,5v-1l-1-1c-2.7.319-8.986,0.111-12-2,13.431-.082,16.3.3,29,2v-1c-4.2-2.215-9.183-4.828-13-7v3C948.187,310.757,926.933,320.032,913,316Zm1,2c0.843,1.814,1.82,1.17,0,2v-2Zm24,0h2v1Zm6,0h2C944.521,319.346,945.776,318.919,944,318Zm15,0,2,2Zm-12,1,3,1Zm15,0,3,2C963.583,319.543,964.236,320,962,319Zm-272,1q0.5,1,1,2h-1v-2Zm23,2q0.5,2.5,1,5h1C714.14,323.406,715.3,324.168,713,322Zm257,0c1.571,1.954,1.369,1.871,4,3v-1Zm-329,1q0.5,2.5,1,5h1v-5h-2Zm296,0c0.843,1.814,1.82,1.17,0,2v-2Zm648,2c3.21,1.115,1.26-.293,3,2h-1C1586.33,326.333,1585.67,325.667,1585,325Zm-631,1c1.417,1.457.764,1,3,2v-1Zm4,0v2l8,1C964.119,327.28,960.784,326.9,958,326Zm-231,1q1,4.5,2,9h1v-2Zm205,0,2,1Zm-312,1c1.457,1.417,1,.764,2,3h-1v-1Q620.5,329,620,328Zm93,0q1,5.5,2,11h1v-2Zm292,3c3.2,6.34,9.94,7.492,14,13h-2c-1.72-1.928-3.54-2.771-6-4v1h1c9.78,8.612,27.61,10.766,42,17,27.59,11.948,59.96,28.261,87,45-12.48-19.54-40.28-43.786-65-54-13.41-5.538-20.3-1.1-35-6-6.9-2.3-14.24-8.651-22-12,0.33,0.667.67,1.333,1,2h-2C1014.23,329.569,1008.79,331.4,1005,331Zm-382,2h2v1Zm397,0c2.33,1.333,4.67,2.667,7,4l-6-1C1020.67,335,1020.33,334,1020,333Zm-335,1c2.265,1.837,2.7,3.12,4,6h-2Q686,337,685,334Zm8,0q1,3.5,2,7v-7h-2Zm307,1c0.33,1,.67,2,1,3h2v-1Zm601,1q3.495,4,7,8h-2l-3-3C1602.33,339.334,1601.67,337.666,1601,336Zm-571,1h2v1C1031.33,337.667,1030.67,337.333,1030,337Zm574,0h2v1C1605.33,337.667,1604.67,337.333,1604,337Zm-567,1c2.21,2.266.8,2.714,3,1Zm-308,1q0.5,1.5,1,3Q729.5,340.5,729,339Zm-12,1c-0.056,5.863-1.462,10.534-1,13h1V340Zm324,0c1.81,0.843,1.17,1.82,2,0h-2Zm-327,1q0.5,1.5,1,3Q714.5,342.5,714,341Zm-28,2q0.5,1,1,2h-1v-2Zm190,0c-1.44,15.081,12.127,22.8,18,34h1v-2l-7-9h2c20.633,30.507,42.848,48.219,77,65v2l2,1-2-2c13.437,2.334,45.6,20.962,65,26-0.43,1.953-1.45.619,0,2,1.98,2.23,3.66,3.008,7,4-2.33-1.666-4.67-3.334-7-5h2c23.67,15.223,56.22,15.194,79,30v-1c0.31-.679-0.23-0.3,1-1l34,10c25.29,7.642,56.88,19.788,79,33,14.04,8.383,25.19,20.741,38,30,1.74,1.255,9.72,3.952,13,7,5.18,4.811,6.8,11.988,14,15v-1c-13.97-15.717-22.41-37.832-41-51v1l12,14h-2c-8.1-12.82-25.12-22.419-31-36h1c3.89,5.507,10.23,10.406,16,14-5.75-8.564-19.32-18.383-26-23,0.33,0.667.67,1.333,1,2h-2v-1c-1.28-1.359.27-1.157-2-3,0.33,0.667.67,1.333,1,2h-2c-10-11.064-50.94-42.321-65-48-31.45-12.7-69.12-14.878-100-25-13.03-4.27-51.66-14.281-54-26l5-1,18,5v-1c0.31-.679-0.23-0.3,1-1,0.28,0.247,2.04.132,5,1v-1c-2.21-1.419-.57.181-2-2,3.75,0.406,4.02-.826,11-1,0.67,0.667,1.33,1.333,2,2v-1c0.31-.679-0.23-0.3,1-1,0.67,0.667,1.33,1.333,2,2v-3c0.33,0.333.67,0.667,1,1l26,1v-1l-3-2h5c-25.66-10.954-49.96-8-73-6l-23-5H952c-12.7-3.477-28.093-12.6-36-18H905v-2l2-1-5-3h3l3,2C901.073,352.182,889.327,346.364,876,343Zm-229,1h2C647.521,345.346,648.776,344.919,647,344Zm9,0q0.5,1,1,2h-1v-2Zm363,0h2v1C1020.33,344.667,1019.67,344.333,1019,344Zm589,0h2v1C1609.33,344.667,1608.67,344.333,1608,344Zm2,1h2v1C1611.33,345.667,1610.67,345.333,1610,345Zm-733,1,3,1v7h-1v-2Q878,349,877,346Zm-188,1q0.5,1,1,2h-1v-2Zm195,0c3.084,2.322,3.667,1.937,2,4v-1C884.543,348.583,885,349.236,884,347Zm-156,1v2h1Q728.5,349,728,348Zm338,0h2v1C1067.33,348.667,1066.67,348.333,1066,348Zm548,1c2.27,2.206,2.71.8,1,3v-1C1614.67,350.333,1614.33,349.667,1614,349Zm-572,1q4.995,2.5,10,5v1h-2Q1045.995,353,1042,350Zm31,0h2v1h-2v-1Zm2,1h2v1C1076.33,351.667,1075.67,351.333,1075,351Zm-361,2,2,2Zm166,1q0.5,1,1,2h-1v-2Zm180,0h2v1C1061.33,354.667,1060.67,354.333,1060,354Zm2,1h2v1C1063.33,355.667,1062.67,355.333,1062,355Zm-181,1c3.084,2.322,3.667,1.937,2,4v-1C881.543,357.583,882,358.236,881,356Zm171,0h2v1C1053.33,356.667,1052.67,356.333,1052,356Zm13,0h2v1C1066.33,356.667,1065.67,356.333,1065,356Zm-351,1q0.5,1,1,2h-1v-2Zm340,0h2v1C1055.33,357.667,1054.67,357.333,1054,357Zm13,0h2v1C1068.33,357.667,1067.67,357.333,1067,357Zm698,0c1.46,1.417,1.01.764,2,3h-1v-1C1765.67,358.333,1765.33,357.667,1765,357Zm-709,1h2v1C1057.33,358.667,1056.67,358.333,1056,358Zm2,1h2v1C1059.33,359.667,1058.67,359.333,1058,359Zm14,0h2v1C1073.33,359.667,1072.67,359.333,1072,359Zm-359,1q0.5,1,1,2h-1v-2Zm348,1h2v1C1062.33,361.667,1061.67,361.333,1061,361Zm708,1c0.33,0.667.67,1.333,1,2h-1v-2Zm-671,3h2v1C1099.33,365.667,1098.67,365.333,1098,365Zm-189,1c1.417,1.457.764,1,3,2Zm191,0h2v1C1101.33,366.667,1100.67,366.333,1100,366Zm2,1c2.27,2.206,2.71.8,1,3v-1C1102.67,368.333,1102.33,367.667,1102,367Zm-486,2q0.5,1,1,2h-1v-2Zm98,0h2v1Zm922,0h2v1C1637.33,369.667,1636.67,369.333,1636,369Zm-787,3v4h1v-2l1,1h1q-0.5,1.5-1,3l-2-1v2c3.066,10.747-2.829,16.581-1,29,2.524,17.134,17.672,37.437,27,50,32.677,44.008,135.22,37.431,183,66,8.81,5.269,20.7,15.3,26,24,5.51,9.054,8.96,22.638,18,28-0.67.667-1.33,1.333-2,2h1c3.67,7.118,8.63,10.588,11,17h-1c-1.42-1.457-.76-1-3-2v3c4.99,8.076,16.3,36.331,30,30,0.33-.667.67-1.333,1-2-8.24-6.513-16.52-6.884-20-16h1l3,3c-5.74-8.838-8.88-18.108-15-26,0.67-.333,1.33-0.667,2-1-3.14-.363-1.15,1.564-3-1h-1c2.76-5.959-3.74-16.058-4-27l3-1c1.36-.841,3.83-0.479,6,0,14,3.091,28.8-1.921,39,6,8.49,6.592,11.99,19.6,23,24v-1c-5.54-3.417-15.39-11.932-18-18h1c14.38,14.419,27.33,31.993,48,39v-2c-4.93-4.658-9.14-16.1-14-24-11.46-18.626-27.08-37.959-46-49-13.56-7.912-32-6.331-48-12-35.81-12.687-75.12-17.2-111-34q0.5,1,1,2h-2l-2-2,2-1h-5l2-1c-37.532-5.271-83.681-23.657-101-50C870.235,417.148,863.027,380.331,849,372Zm55,3h2v1Zm196,1h2v1C1101.33,376.667,1100.67,376.333,1100,376Zm544,0c3.31,2.2,4.66,2.992,3,5v-1C1645.05,378.429,1645.13,378.631,1644,376Zm-543,3h2v1C1102.33,379.667,1101.67,379.333,1101,379Zm2,1h2v1C1104.33,380.667,1103.67,380.333,1103,380Zm-193,1c1.457,1.417,1,.764,2,3h-1v-1Q910.5,382,910,381Zm195,0h2v1C1106.33,381.667,1105.67,381.333,1105,381Zm2,1,9,4v1h-2C1111.67,385.334,1109.33,383.666,1107,382Zm-169,2h2v1Zm718,1,3,3Zm-714,1c1.457,1.417,1,.764,2,3h-1v-1Q942.5,387,942,386Zm-27,1c2.27,0.968,1.577.552,3,2l1,1C916.337,388.909,916.579,388.93,915,387Zm201,0,3,1v1C1116.73,388.032,1117.42,388.448,1116,387Zm-154,1h2v1Zm36,1,2,1Zm121,0h2v1C1120.33,389.667,1119.67,389.333,1119,389Zm-200,1,6,3v1h-2Zm84,0h2v1h-2v-1Zm-56,2h2v1Zm177,0h2v1h-2v-1Zm4,0c0.84,1.814,1.82,1.17,0,2v-2Zm-179,1,2,3h-2v-3Zm714,0c1.33,1.333,2.67,2.667,4,4C1665.67,395.667,1664.33,394.333,1663,393Zm-753,1c2.206,2.266.8,2.714,3,1Zm16,1q0.5,1,1,2h-1v-2Zm-75,1v0Zm282,0h2v1C1134.33,396.667,1133.67,396.333,1133,396Zm-215,3c2.27,0.968,1.577.552,3,2l1,1C919.337,400.909,919.579,400.93,918,399Zm-380,1v2h1Q538.5,401,538,400Zm494,1c1.42,1.457.76,1,3,2v-1Zm-110,1,3,1v1C922.73,403.032,923.423,403.448,922,402Zm96,0h2v1C1019.33,402.667,1018.67,402.333,1018,402Zm-92,3h2v1Zm-333,1q0.5,1,1,2h-1v-2Zm259,0c2.326,2.9,4.384,12.945,3,16Zm77,1,3,1v1C929.73,408.032,930.423,408.448,929,407Zm4,2h2v1h-2v-1Zm3,1h2v1Zm2,1h2v1Zm5,2q0.5,1,1,2h-1v-2Zm736,0c0.33,0.667.67,1.333,1,2h-1v-2ZM656,417h2C656.521,418.346,657.776,417.919,656,417Zm290,0,5,3v1h-2l-2-1Q946.5,418.5,946,417Zm-367,1h2v1Zm-10,2q-0.5,1-1,2,0.5,1.5,1,3h1q0.5-2.5,1-5h-2Zm382,1h2v1Zm-95,1q0.5,1,1,2h-1v-2Zm97,0,12,5v1h-3Zm-96,2q0.5,1,1,2h-1v-2Zm-290,1q-0.5,2-1,4h2Q567.5,427,567,425Zm292,2q0.5,1,1,2h-1v-2Zm106,1h2v1Zm-435,1q0.5,1,1,2h-1v-2Zm437,0h2v1Zm87,0h2v1C1055.33,429.667,1054.67,429.333,1054,429Zm-85,1h2v1Zm87,0,3,1Zm-189,1q0.5,1,1,2h-1v-2Zm-3,4c0.843,1.814,1.82,1.17,0,2v-2Zm834,0h2v1h-2v-1ZM636,444h2l-2,2-1,1Q635.5,445.5,636,444Zm-2,3v3h-1Q633.5,448.5,634,447Zm-10,1h2v4h-1v-2Q624.5,449,624,448Zm-61,2q-0.5,3-1,6h2Q563.5,453,563,450Zm69,0q0.5,1,1,2h-1v-2Zm-494,1c1.814,0.843,1.17,1.82,2,0h-2Zm436,2q0.5,1.5,1,3h1v-3h-2Zm50,0q0.5,1.5,1,3h-1v-3Zm6,0q0.5,1,1,2h-1v-2Zm-493,2v2h1Zm492,0q0.5,1,1,2h-1v-2Zm246,0h2v2h-1Q875.5,456,875,455Zm-252,1c1.457,1.417,1,.764,2,3h-1v-1Q623.5,457,623,456Zm1097,0c0.33,1,.67,2,1,3h1C1721.03,456.73,1721.45,457.423,1720,456Zm-842,2c0.843,1.814,1.82,1.17,0,2v-2Zm149,0c0.67,0.333,1.33.667,2,1C1028.33,458.667,1027.67,458.333,1027,458Zm-408,1c0.9,3.725,1.516,4.988,4,7l1,1v-2Zm261,1c2.27,0.968,1.577.552,3,2l1,1C881.337,461.909,881.579,461.93,880,460Zm-346,1q0.5,1,1,2h-1v-2Zm369,0h2v1Zm-331,1q1,2.5,2,5C573.631,463.042,574.277,463.815,572,462Zm328,4c2.27,0.968,1.577.552,3,2l1,1C901.337,467.909,901.579,467.93,900,466Zm823,2h2v1h-2v-1Zm5,0c1.11,3.213-.29,1.262,2,3v-1C1729.33,469.333,1728.67,468.667,1728,468Zm-824,1h2v1Zm176,0c0.67,1,1.33,2,2,3h-2v-3Zm-174,1,4,1v1h-2Zm-340,2v0Zm333,0,11,6v1h-3Zm12,1,5,2v1h-2Zm32,5c2.266,2.206,2.714.8,1,3v-1Q943.5,479,943,478Zm-33,1,10,3v1h-3Zm-347,2q0.5,1,1,2h-1v-2Zm405,0,3,1Zm6,1,3,1Zm-54,1h2v1Zm384,0h2C1304.52,484.346,1305.78,483.919,1304,483Zm-742,1c0.843,1.814,1.82,1.17,0,2v-2Zm732,1h2v1C1295.33,485.667,1294.67,485.333,1294,485Zm-738,1q0.5,1,1,2h-1v-2Zm390,0,3,1Zm11,0h2v1Zm158,3c0.67,0.333,1.33.667,2,1C1116.33,489.667,1115.67,489.333,1115,489Zm-154,1h2v1Zm157,0c1.33,0.667,2.67,1.333,4,2v-1c-0.33-.333-0.67-0.667-1-1h-3Zm623,0c1.33,1.333,2.67,2.667,4,4C1745.99,492.224,1741.7,490.593,1741,490Zm-790,1h2v1Zm3,1h2v1Zm169,0c0.67,0.333,1.33.667,2,1C1124.33,492.667,1123.67,492.333,1123,492Zm-562,1q-0.5,1.5-1,3h1v-3Zm570,1c0.67,0.333,1.33.667,2,1C1132.33,494.667,1131.67,494.333,1131,494Zm-119,1h2v1C1013.33,495.667,1012.67,495.333,1012,495Zm122,0c0.67,0.333,1.33.667,2,1C1135.33,495.667,1134.67,495.333,1134,495Zm26,0h2v1C1161.33,495.667,1160.67,495.333,1160,495Zm-23,1c0.67,0.333,1.33.667,2,1C1138.33,496.667,1137.67,496.333,1137,496Zm25,0h2v1C1163.33,496.667,1162.67,496.333,1162,496Zm583,0,3,3Zm-554,6c0.84,1.814,1.82,1.17,0,2v-2Zm673,0,3,3Zm-671,2h2v1C1194.33,504.667,1193.67,504.333,1193,504Zm-143,2h2v1C1051.33,506.667,1050.67,506.333,1050,506Zm126,0h2v1C1177.33,506.667,1176.67,506.333,1176,506Zm51,0c0.84,1.814,1.82,1.17,0,2v-2Zm-175,1h2v1C1053.33,507.667,1052.67,507.333,1052,507Zm126,0h2v1C1179.33,507.667,1178.67,507.333,1178,507Zm-149,1h2C1029.52,509.346,1030.78,508.919,1029,508Zm26,0h2v1C1056.33,508.667,1055.67,508.333,1055,508Zm-4,1h2v1h-2v-1Zm2,1c1.67,0.667,3.33,1.333,5,2v1h-2Zm5,3h2v1C1059.33,513.667,1058.67,513.333,1058,513Zm-17,1h2v1C1042.33,514.667,1041.67,514.333,1041,514Zm3,1h2v1C1045.33,515.667,1044.67,515.333,1044,515Zm2,1h2v1C1047.33,516.667,1046.67,516.333,1046,516Zm-540,1,1,2h-1v-2Zm708,0h2v1C1215.33,517.667,1214.67,517.333,1214,517Zm-671,2q0.5,1,1,2h-1v-2Zm665,3v2l24,13C1226.52,530.1,1215.84,526.439,1208,522Zm-668,1h2v7l-2,1v-1q-0.5-1.5-1-3Q539.5,525,540,523Zm558,1h2v1C1099.33,524.667,1098.67,524.333,1098,524Zm150,0,3,3Zm-452,1,2,2Zm5,0,2,2c-0.776.817-3.059,1.129-1,2,2.134,5.312,12.874,15.486,9,20a20.316,20.316,0,0,1-4,7s-13.062,7.317-18,6l2-1-5-1v1l3,1c-16.634-2.409-40.145,5.267-39,26q-0.5,4.5-1,9c10.376,26.234,25.918,18.126,46,31-3.061,6.31-10.918,14.879-17,18l-8-3h-1q0.5,2,1,4c15.182,18.68,51.159,16.36,70,12v2c6.587-2.416,14.155,4.117,22,6v-4l-9-8c-15.81-7.028-35.012,1.219-44-15-3.094-5.609-.2-9.547,1-16-8.528-6.5-23.734-16.448-31-24-6.545-9.237-.986-18.069,4-24,16.455,2.633,34.748-2.538,44-13v2l1-1c1.7-3.014.406-11.206-1-16l2,1C825.624,544.863,812.384,528.118,801,525Zm427,1h2v1C1229.33,526.667,1228.67,526.333,1228,526Zm-154,1c1.46,1.417,1.01.764,2,3h-1v-1C1074.67,528.333,1074.33,527.667,1074,527Zm160,0,3,4h-2v-2C1234.67,528.333,1234.33,527.667,1234,527Zm-431,1,3,1v2h-1Zm435,2c0.84,1.814,1.82,1.17,0,2v-2Zm-698,2h2v2h-2v-2Zm132,0c-1.2,4.937-11.649,16.055-15,24-9.715,23.034-21.072,76.733-37,87q1,2,2,4c-3.257.173-2.933-.776-5,3,2.213,1.419.566-.181,2,2h-4v6c-0.968-2.27-.552-1.577-2-3,0.438,14.279-24.019,44.843-23,67h-3c2.55,2.261,1.463.753,1,4l2-1v2c-6.89,2.826-4.709,15.5-6,24-1.674,11.012,1.268,30.651-3,37l3,1c-1.457,1.417-1,.764-2,3h1q0.5-1,1-2,0.5,2.5,1,5c-2.629.848-1.12-.688-2,2,0.115,0.119,13.677,33.13,14,45h-1q-2-7.5-4-15h-1v2c6.919,11.015,10.092,29.238,16,41h-2l1,1,26,50h-1l-2-2v1l7,9-4-8h1v1c9.7,10.446,23.227,27.686,29,38,2.366,0.427,17.471,11.22,25,14,27.534,10.166,70.807,11.345,85,32,21.993,32.01,26.563,77.9,45,108,13.7,22.37,43.721,35.86,54,58,0.667,0.33,1.333.67,2,1v-2q-5-6.495-10-13h2c6.148,8.34,11.084,11.42,11,27,1.333,0.33,2.667.67,4,1v-2c4.285-5.36,6.2-23.76,2-31q-12.5-15-25-30a340.08,340.08,0,0,1-38-67c-9.984-23.2-22-53.91-39-67-14.8-11.389-32.683-12.393-54-18-15.007-3.947-29.711-12.66-41-21-17.212-12.717-20.932-29.308-29-48-17.718-41.05-35.438-77.2-35-137h-2q0.5,5.5,1,11h-2V759c1.834-3.713-.113-3.926,2-7l-2-2c4.874-4.462,2.021-23.749,5-35l9-27h-1q-1,3.5-2,7h-1v-3l3-8h1c1.115,3.213-.293,1.262,2,3-1.69-8.851,8.428-33.49,14-43,6.824-11.647,17.3-36,24-56q3-25.5,6-51l-1-1C675.439,532.942,675.008,533.415,672,532Zm406,0c0.33,0.667.67,1.333,1,2h-1v-2Zm-405,2c2.265,1.837,2.7,3.12,4,6h-2v-1Zm407,1c2.57,1.794,3.69,2.8,5,6h-1C1082.39,538.652,1081.22,537.967,1080,535Zm-546,1,2,1Zm701,2c0.67,0.667,1.33,1.333,2,2C1236.33,539.333,1235.67,538.667,1235,538Zm-565,1q0.5,1,1,2h-1v-2Zm-130,1v2h1Q540.5,541,540,540Zm698,0c0.67,0.667,1.33,1.333,2,2C1239.33,541.333,1238.67,540.667,1238,540Zm-567,1q0.5,1,1,2h-1v-2Zm570,1c0.67,0.667,1.33,1.333,2,2C1242.33,543.333,1241.67,542.667,1241,542Zm-90,2h2v1C1152.33,544.667,1151.67,544.333,1151,544Zm-335,2h2v1Zm342,0c0.33,1,.67,2,1,3h-1v-3Zm106,0c0.33,0.667.67,1.333,1,2h-1v-2Zm-446,1h2v1Zm3,1h2v1h-2v-1Zm326,1c0.33,0.667.67,1.333,1,2h-1v-2Zm-56,1c1.46,1.417,1.01.764,2,3h-1v-1C1091.67,551.333,1091.33,550.667,1091,550Zm5,0h2v1C1097.33,550.667,1096.67,550.333,1096,550Zm61,1c1.67,1.736,1.19.894,2,4h-1v-2C1157.67,552.333,1157.33,551.667,1157,551Zm-47,1h5v1h-1v1C1112.67,553.333,1111.33,552.667,1110,552Zm157,0a16.885,16.885,0,0,1,9,11h-1v-2A24.6,24.6,0,0,1,1267,552Zm-172,1h2C1095.52,554.346,1096.78,553.919,1095,553Zm73,3c0.33,0.667.67,1.333,1,2h-1v-2Zm-72,1c0.84,1.814,1.82,1.17,0,2v-2Zm-424,1q0.5,1,1,2h-1v-2Zm497,0c0.33,0.667.67,1.333,1,2h-1v-2Zm-70,1c0.33,0.667.67,1.333,1,2h-1v-2Zm53,1h2v1C1153.33,560.667,1152.67,560.333,1152,560Zm18,0c6.28,2.662,12.02,14.268,14,21h-1v-1Q1176.505,570,1170,560Zm725,0c0.33,1,.67,2,1,3C1895.67,562,1895.33,561,1895,560Zm-741,1,3,1v1C1154.73,562.032,1155.42,562.448,1154,561Zm-360,2h2v1h-2v-1Zm301,1c0.33,0.667.67,1.333,1,2h-1v-2Zm69,0h2v1C1165.33,564.667,1164.67,564.333,1164,564Zm150,0c0.33,0.667.67,1.333,1,2h-1v-2Zm-542,2,3,1v1C772.73,567.032,773.423,567.448,772,566Zm324,0c0.67,1.333,1.33,2.667,2,4h-1v-1C1096.67,568,1096.33,567,1096,566Zm178,3c0.67,0.667,1.33,1.333,2,2C1275.33,570.333,1274.67,569.667,1274,569Zm-176,1c1.46,1.417,1.01.764,2,3h-1v-1C1098.67,571.333,1098.33,570.667,1098,570Zm179,2c1.57,1.954,1.37,1.871,4,3C1279.67,574,1278.33,573,1277,572Zm-488,1,3,1v1C789.73,574.032,790.423,574.448,789,573Zm385,0c0.33,0.667.67,1.333,1,2h-1v-2Zm9,0c1.46,1.417,1.01.764,2,3h-1v-1C1183.67,574.333,1183.33,573.667,1183,573Zm-7,3c0.33,0.667.67,1.333,1,2h-1v-2Zm9,0c1.46,1.417,1.01.764,2,3h-1v-1C1185.67,577.333,1185.33,576.667,1185,576Zm604,0h2v1C1790.33,576.667,1789.67,576.333,1789,576Zm-507,1,3,3Zm40,0c0.33,0.667.67,1.333,1,2h-1v-2Zm-545,2q0.5,1.5,1,3S774.335,580.28,777,579Zm410,0c1.46,1.417,1.01.764,2,3h-1v-1C1187.67,580.333,1187.33,579.667,1187,579Zm606,0v2h1v-2h-1Zm-689,1h2C1104.52,581.346,1105.78,580.919,1104,580Zm220,0c0.33,0.667.67,1.333,1,2h-1v-2Zm-140,1c1.46,1.417,1.01.764,2,3h-1v-1C1184.67,582.333,1184.33,581.667,1184,581Zm102,0c1.33,1.333,2.67,2.667,4,4C1288.67,583.667,1287.33,582.333,1286,581Zm-511,1h2q-0.5,1.5-1,3l-2,1v-2Q774.5,583,775,582Zm550,0c0.33,0.667.67,1.333,1,2h-1v-2Zm-139,2,3,1v1C1186.73,585.032,1187.42,585.448,1186,584Zm140,0c0.33,0.667.67,1.333,1,2h-1v-2Zm-553,2c2.266,2.206,2.714.8,1,3v-1Q773.5,587,773,586Zm403,1c0.67,0.667,1.33,1.333,2,2C1177.33,588.333,1176.67,587.667,1176,587Zm-414,1h2v1Zm11,1q0.5,1.5,1,3h-1v-3Zm413,0h2C1186.52,590.346,1187.78,589.919,1186,589Zm-283,1c-0.687,2.128.1,1.781-2,1v3l13,16c-3.843,12.172-2.359,25.259,8,33q-0.5-1.5-1-3h1v1l2,2c-0.871,1.659-2.761.622-1,2v1c1.659-.871.622-2.761,2-1a448.462,448.462,0,0,1,68,145c3.849,14.579,14.25,29.01,15,45h-1q-2-5.5-4-11h-1v3c6.36,10.335.3,17.52,5,32,3.12,9.62,6.14,29.551,12,46h1v-4h1v5c0.33,0.667.67,1.333,1,2h-1c-0.67-.667-1.33-1.333-2-2v2c6.14,6.034,5.87,21.732,8,28-0.67-.333-1.33-0.667-2-1v2c8.97,12.861,9.58,83.22,13,103,1.64,9.48,4.82,31.07,1,38-7.11,14.75-43.609,25.93-52,38,0.333,0.67.667,1.33,1,2h-3c0.333,0.67.667,1.33,1,2h-2c0.333,0.67.667,1.33,1,2-5.323,1.12-21.992,41.34-22,52,5.192,2.69,9.4,3.21,10,11-13.238,21.2,7.645,90.98,36,76,3.51-1.98,4.19-1.36,5-5,0.33-.67.67-1.33,1-2-42.8-21.19-30.365-60.22-7-90,7.57-9.65,10.38-21.47,21-28,14.26-8.76,26.53.82,39-1v-1c-3.21-7.6-3.86-10.49-15-13-2.67-.33-5.33-0.67-8-1l-2,2c-29.63-10.06-46.074,22.28-62,44-1.333-.33-2.667-0.67-4-1-0.333-.67-0.667-1.33-1-2,5.258-17.47,10.948-41.59,27-48v2c13.89-15.3,43.08-13.2,61-18,4.38-24.05-6.52-49.04-12-78-1.51-7.97,1.76-33.625-2-49-9.99-40.833-20.51-90.607-29-122,0.67,0.333,1.33.667,2,1-1.83-6.6-1.39-9.438-4-14,0.67-.333,1.33-0.667,2-1-6.18-7.575-1.98-21.472-5-33q-5.5-14-11-28h1v1l3,6h1v-2c-9.72-13.61-18.064-28.795-26-44q-4-9.5-8-19c-16.479-25.507-34.788-51.446-50-77C914.54,620.748,927.508,605.82,903,590Zm-129,2q0.5,1.5,1,3h-1v-3Zm416,1c0.33,0.667.67,1.333,1,2h-1v-2Zm-415,2q0.5,1,1,2h-1v-2Zm335,2h2C1110.52,598.346,1111.78,597.919,1110,597Zm85,0h2v1C1196.33,597.667,1195.67,597.333,1195,597Zm-419,1q0.5,1,1,2h-1v-2Zm421,0h2v1C1198.33,598.667,1197.67,598.333,1197,598Zm713,0c0.67,0.667,1.33,1.333,2,2C1911.33,599.333,1910.67,598.667,1910,598Zm-798,2c5.41,4.759,5.86,10.814,10,17h-2v-1C1115.89,612.763,1113.07,606.093,1112,600Zm88,0h2v1C1201.33,600.667,1200.67,600.333,1200,600Zm717,1c0.33,0.667.67,1.333,1,2h-1v-2ZM652,604q0.5,1,1,2h-1v-2Zm105,1,6,7h-2C759.083,609.213,758.031,609.091,757,605Zm1162,1c0.33,0.667.67,1.333,1,2h-1v-2ZM766,607h2v1Zm1154,1c0.33,0.667.67,1.333,1,2h-1v-2ZM769,609c2.663,1.091,2.421,1.07,4,3l1,1C771.044,611.826,770.686,611.259,769,609Zm-6,3h2v1Zm362,0,3,3Zm-360,1,4,1v2h-1Zm364,2a12.065,12.065,0,0,0,6,4Zm-210,2v0Zm-110,3c1.558,2.815,2.514,6.066,4,7v-3Zm319,0q4.005,2,8,4v1h-2Zm-210,1v0Zm-126,2h2v1Zm349,0,3,3Zm-347,1h2v1Zm-151,1v0Zm145,1,2,2Zm9,0q0.5,1,1,2h-1v-2Zm121,0q0.5,1.5,1,3h-1v-3Zm1,11q0.5,1,1,2h-1v-2Zm1014,3,3,8h-1v-2C1933.48,644.022,1933.41,643.579,1933,640ZM783,642l3,5h-2v-2Q783.5,643.5,783,642Zm-162,1h2C621.521,644.346,622.776,643.919,621,643Zm144,1q1,2,2,4h1v-2A11.648,11.648,0,0,0,765,644Zm9,2h2v1Zm28,0c2.27,0.968,1.577.552,3,2l1,1C803.337,647.909,803.579,647.93,802,646Zm-26,1q0.5,1,1,2h-1v-2Zm-157,1h2l-1,1v1Q619.5,649,619,648Zm1317,0c0.33,1,.67,2,1,3h-1v-3ZM815,649h2v1Zm-39,1c0.843,1.814,1.82,1.17,0,2v-2Zm41,0,4,1v1h-2Zm-35,3,7,5h-4Zm44,3h2v1Zm-34,1h2v1Zm3,1h2v1h-2v-1Zm-181,1q0.5,1,1,2h-1v-2Zm11,0v0Zm466,0c-0.87,3.209-2.41-.743-4,5,0.67,1.333,1.33,2.667,2,4-0.67-.333-1.33-0.667-2-1v2c5,9.386.48,23.619-2,34-0.67-.333-1.33-0.667-2-1v2c2.24,1.653,2.25,2.881,3,6h-1v-1c-1.32-1.8-1.06-2.614-3-4q-0.495,6.5-1,13h-2c1.36,1.824,3.23,37.21,7,46,1.67,1,3.33,2,5,3v-3c-2.59-1.527-3.5-3.519-5-6,3.14-.363,1.15,1.564,3-1-1.95-2.934-.29-7.265-1-13h1v1c0.67,1.667,1.33,3.333,2,5v-5c-5.84-5.941-4.01-24-4-31h2c0.36,3.141-1.56,1.15,1,3v-6c0.33-.667.67-1.333,1-2-3.12-1.631-1.9-.229-3-4,0.33-.667.67-1.333,1-2h2v1c-0.97,1.419-2.47,1.8-1,3v1h1q1.005-5,2-10h-1c-0.7,3.7.29,2.193-2,4v-1C1094.33,693.686,1100.64,667.085,1091,659Zm-455,7q0.5,1,1,2h-1v-2Zm-18,1c0.843,1.814,1.82,1.17,0,2v-2Zm6,0q0.5,1,1,2h-1v-2Zm-8,3c0.843,1.814,1.82,1.17,0,2v-2Zm-3,6h2v1Zm20,2q0.5,1,1,2h-1v-2Zm233,99V766q1,4.5,2,9h1v-4c-6.8-12.292-3.389-13.821-14-23-32.512-1.2-62.745-9.728-63-45h2c8.553,1.386,16.983-6.662,29-4l29,8c5.454,3.536,7.541,8.953,14,12v-2l-2-1,4,1c-14.142-45.666-37-21.111-61-32q-0.5,1.5-1,3c-4.975-5.469-17.216,2.747-26,0-4.642-1.451-7.354-6.321-13-8v1c2.27,0.968,1.577.552,3,2-3.263-.051-3.1-0.772-6,1l2,3c1.953-.432.619-1.446,2,0v2c3.766,5.459,11.041,6.157,15,11l12,32c14.338,22.075,25.13,19.335,48,31C851.185,767.175,855.047,776.172,866,777Zm-96-94h2v1Zm42,3h2v1Zm-11,1h2v1Zm-24,1h2v1Zm19,0,3,1Zm-26,1c2.266,2.206,2.714.8,1,3v-1Q770.5,690,770,689Zm9,0,4,1Zm-6,3,5,1v1h-4Q773.5,693,773,692Zm706,2,3,1Zm5,1c1.79,1.888,1.46,1.357,2,5h-1C1484.67,698.333,1484.33,696.667,1484,695Zm-857,1q0.5,1,1,2h-1v-2Zm-29,3,2,3h-2v-3Zm28,0q0.5,1,1,2h-1v-2Zm215,1h2v1Zm3,1,4,1v1h-2Zm641,0c0.33,0.667.67,1.333,1,2h-1v-2Zm-860,1q0.5,1,1,2h-1v-2Zm223,1h2v1Zm8,0q0.5,1,1,2h-1v-2Zm-6,1h2v1Zm-34,3c-1.631,2.288-1.944,1.643-3,5,2.675,0.919-.459.69,2,2,2.763,2.409,5.159,3.491,10,4,0.848-2.629-.688-1.12,2-2h1q0.5-2.5,1-5a11.648,11.648,0,0,0-3-2C821.787,706.486,820.8,708.31,816,707Zm45,2c2.547,1.564,1.849.988,3,4h-1v-1Zm227,0v0Zm-491,2c2.213,1.419.566-.181,2,2q-0.5,3-1,6Q597.5,715,597,711Zm846,8,3,1h-2C1443.32,719.687,1443.7,720.23,1443,719Zm-849,1q0.5,1,1,2h-1v-2Zm833,0,3,1Zm6,1h2v1C1434.33,721.667,1433.67,721.333,1433,721Zm-350,10c0.33,0.667.67,1.333,1,2h-1v-2Zm-496,4q0.5,1.5,1,3h-1v-3Zm395,2q0.5,1,1,2h-1v-2Zm-210,2q0.5,1.5,1,3h-1l-2-2v1c2.666,1.948,3.036,2.055,4,6h-1c-1.414-3.329-2.064-3.358-5-5v2c2.336,1.81,1.247.316,2,4h-1c-1.321-2.013-.81-1.707-3-3v1c4.133,3.062,7.173,8.779,9,14h-1l-2-2v1l2,1c9.915,8.507,28.11,13.561,43,21v-1s-0.09-.326,3-1v-1c-13.632-9-30.714-14.88-43-25h2l-1-1Zm310,0c1.67,1.736,1.19.894,2,4h-1v-1C1082.67,741,1082.33,740,1082,739Zm-470,1q0.5,1,1,2h-1v-2Zm1244,1c0.67,1,1.33,2,2,3h-2v-3Zm-774,2q1.995,6.5,4,13h-1v-1C1082.92,751.948,1082.2,747.988,1082,743Zm778,1c0.67,0.667,1.33,1.333,2,2C1861.33,745.333,1860.67,744.667,1860,744ZM585,745v0Zm189,2c1.672,1.736,1.193.894,2,4h-1v-2Q774.5,748,774,747Zm1082,0c0.84,1.814,1.82,1.17,0,2v-2ZM595,749q0.5,1,1,2h-1v-2Zm1263,0h2v1h-2v-1ZM855,750h2v1Zm235,1c0.33,2.333.67,4.667,1,7h1C1091.33,755.667,1090.67,753.333,1090,751Zm-494,1q0.5,1,1,2h-1v-2Zm173,0v2h1Q769.5,753,769,752Zm221,0q0.5,1,1,2h-1v-2Zm-147,2c0.843,1.814,1.82,1.17,0,2v-2Zm17,0h2C860.521,755.346,861.776,754.919,860,754Zm-90,1,2,2Zm63,2,10,4v1h-2Zm30,0q0.5,1,1,2h-1v-2Zm-248,2,2,5h-1v-1Q615.5,761,615,759Zm373,0q0.5,1.5,1,3h-1v-3Zm-125,1h2v6h-1Q863.5,763,863,760Zm-20,2h2v1h-2v-1Zm2,1h2v1Zm2,1h2v1Zm2,1,3,1v1C849.73,766.032,850.423,766.448,849,765Zm487,0h2v1C1337.33,765.667,1336.67,765.333,1336,765Zm-724,4q0.5,1,1,2h-1v-2Zm247,1h2C859.521,771.346,860.776,770.919,859,770Zm-246,1q0.5,1.5,1,3h-1v-3Zm390,1c1.46,1.417,1.01.764,2,3h-1v-1C1003.67,773.333,1003.33,772.667,1003,772Zm863,1c1.67,2,3.33,4,5,6h-2v-2C1867.05,775.429,1867.13,775.631,1866,773ZM586,774q0.5,1,1,2h-1v-2Zm1,7q0.5,1,1,2h-1v-2Zm409,3q0.5,1,1,2h-1v-2Zm-381,1c1.369,1.769,1.4,1.993,2,5h-1v-2Q615.5,786.5,615,785Zm390,3c0.33,0.667.67,1.333,1,2h-1v-2Zm-388,2q2.5,8,5,16h-1C619.882,799.924,617.541,797.306,617,790Zm-6,6q0.5,1,1,2h-1v-2Zm1263,3c2.05,2.256,2.77,6.531,3,12h-2v-5C1874.67,803.667,1874.33,801.333,1874,799ZM849,800c0.313,6.891,2.858,6.868,5,11,5.2,10.029,5.863,19.171,13,31,4.627,7.668,12.838,14.014,16,23h-1l-8-9v1c9.228,8.016,39.3,45.916,43,58h1l-3-8h1v1c10.664,13.342,12.973,36.784,22,51h7c3.393-7.7,6.413-19.258,14-23,2.119-1.312,3.143-1.789,5-1,11.225,3.317,10.148,17.263,14,28,5.066,14.122,19.153,23.032,26,35,3.76,6.58,1.89,14.69,9,18V997h1c0.67,0.667,1.33,1.333,2,2v-5c-21.052-17.783-19.233-38.057-30-62q-0.5,1.5-1,3c1.537-18.243-17.442-63.844-30-69-4.13-2.913-9.382-1.8-13,1-11.25,13.977,5.643,24.9,9,40,1.54,6.928-3.685,21.763-10,29l-2-1c-7.645-6.466-6.862-20.893-10-32-4.945-17.5-10.317-31.67-22-41q0.5,1,1,2h-2v-1q-2.5-4-5-8h1l5,6c-9.084-16.822-40.27-23.468-46-45l2,1c-1.809-2.248-1.9-.585-3-2-2.819-4.186-1.05-8.578-4-13C853.2,799.933,852.476,800.515,849,800Zm1131,3c0.33,0.667.67,1.333,1,2h-1v-2Zm-975,6c0.84,1.814,1.82,1.17,0,2v-2Zm870,3c2.21,1.419.57-.181,2,2,0.33,1,.67,2,1,3h-1v-2C1876.33,814,1875.67,813,1875,812Zm1,6,3,1v1h-3v-2Zm1,3c0.67,1.667,1.33,3.333,2,5h-1v-1C1877.67,823.667,1877.33,822.333,1877,821Zm2,8c1.74,2.219,2.46,4.083,1,7C1879.67,833.667,1879.33,831.333,1879,829Zm-859,1v2h1C1020.67,831.333,1020.33,830.667,1020,830Zm-149,1c0.843,1.814,1.82,1.17,0,2v-2Zm1113,1c0.33,0.667.67,1.333,1,2h-1v-2ZM874,833c2.266,2.206,2.714.8,1,3v-1Q874.5,834,874,833Zm-256,1q0.5,1,1,2h-1v-2Zm390,2c0.33,0.667.67,1.333,1,2h-1v-2Zm108,0v5q7.005,2,14,4c0.27,2.665-1.13.666,1,3v-1c-0.33-.333-0.67-0.667-1-1h2v1c6.66,9.967,12.49,22.98,22,30q13.005,6,26,12c0.7,5.987,32.06,20.956,38,25,16.4,11.165,28.01,30.479,50,36v-1c-2.55-3.157-2.7-3.705-3-7,0.67,0.333,1.33.667,2,1-6.1-8.629-17.93-20.435-24-26h-1q-25.5-23.5-51-47c-9.22-6.314-16.06-5.868-21-14l-3,1C1166.69,843.66,1130.72,836.335,1116,836Zm765,1,3,5h-1c-0.33-.333-0.67-0.667-1-1C1881.67,839.667,1881.33,838.333,1881,837ZM0,841l1,2H0v-2Zm1007,0c3.2,5.4,6.16,19.782,6,24-0.33-.333-0.67-0.667-1-1C1009.44,860.676,1006.87,850.183,1007,841Zm195,1h2v1C1203.33,842.667,1202.67,842.333,1202,842Zm-87,1c0.67,0.333,1.33.667,2,1C1116.33,843.667,1115.67,843.333,1115,843Zm-240,1h2v1h-2v-1Zm-9,2,3,3Zm-308,3q0.5,2,1,4v-1q0.5-1,1-2ZM99,850v0Zm463,0q0.5,1.5,1,3v-3h-1Zm449,2c0.33,0.667.67,1.333,1,2h-1v-2Zm139,0h2v1C1151.33,852.667,1150.67,852.333,1150,852Zm-138,2c0.33,0.667.67,1.333,1,2h-1v-2Zm142,0h2v1C1155.33,854.667,1154.67,854.333,1154,854Zm-597,2q0.5,2,1,4c-7.142,8.032-9.838,33.445-13,44-4.806,16.042,5.329,35.886-1,40,0,0,4.628,11.9,2,16q-0.5-6-1-12c-4.383,39.712,1.31,114.41,13,158h-1c-0.667-.67-1.333-1.33-2-2v1c0.667,1.67,1.333,3.33,2,5,0.333-.33.667-0.67,1-1,3.638-6.24.912-16.56,2-25,3.4-26.36,4.212-66.47,15-83,0.333,0.67.667,1.33,1,2-0.333-1.67-.667-3.333-1-5l2,1v-5l2,1v-1c-0.014-3.473,3.733-11.551,6-15,1.419,2.213-.181.566,2,2-0.035-3.579,4.206-19.724,6-21l1,1c-1.455-3.3-2.148-6.047-4-7-4.023,5.859-11.869,21.147-24,24-2.087-3.268-2.895-4.027-3-10-4.1-17.926,1.607-42.479-2-62h3c-2.784-4.923-2.4-17.66-4-23l2,1v-2h-3l1-1V871h1c-0.253,4.648-.482,8,2,10v-4l-3-12h1q0.5,2.5,1,5h1v-5l-4-9h-2Zm-2,1v2C556.346,857.521,555.919,858.776,555,857Zm3,6h2C558.521,864.346,559.776,863.919,558,863Zm336,0h2v1h-2v-1Zm-11,2q0.5,1,1,2h-1v-2Zm128,1c1.67,1.736,1.19.894,2,4h-1v-2C1011.67,867.333,1011.33,866.667,1011,866Zm-127,1c1.457,1.417,1,.764,2,3h-1v-1Q884.5,868,884,867Zm-270,1q0.5,1,1,2h-1v-2Zm1372,0v2h1C1986.67,869.333,1986.33,868.667,1986,868ZM809,869v3c6.216,4.4,9.935,11.47,13,16q0.5-1,1-2v2l3,6h-1l-2-2v1c8.591,7.145,15,28.011,19,39h1q-0.5-2-1-4h1v1c5.09,6.11,9.029,16.259,11,25h-2v11c-1.274,3.8-2.378,5.45-6,7-4.31,2.4-7.971,1.118-13,0-0.363,3.141,1.564,1.15-1,3-3.494-3.34-5.122-2.972-9-5v1l2,2-3,1c5.777,0.508,10.223,3.353,14,2l-2-1h3c1.381,2.786-.908,1.512,2,3,3.589-1.167,5.559,1.32,11,2l11-9,8,1c12.129,4.716,21.158,29.82,27,41a11.174,11.174,0,0,1,8,1c-0.667.33-1.333,0.67-2,1h2c0.333,0.33.667,0.67,1,1v-1c0.361-.65.909-0.79,5-1,4.464-3.95,16.786-5.9,19-4,18.606,10.99,15.738,48.42,35,58v-1c-1.944-1.7-2.8-2.35-4-5,2.629-.85,1.12.69,2-2-11.406-18.63-11.635-57.38-39-59-5.961,4.27-11.742,5.79-20,6l-28-47-30-37v-6c-2.612-4.657-8.578-6.072-11-11h1c1.571,1.954,1.369,1.871,4,3v-6C831.166,893.3,824.016,870.5,809,869Zm376,0h2v1C1186.33,869.667,1185.67,869.333,1185,869Zm-299,1c1.954,1.571,1.871,1.369,3,4h-1l-1-1Q886.5,871.5,886,870Zm66,0c2.266,2.206,2.714.8,1,3v-1Q952.5,871,952,870Zm-313,1q0.5,1,1,2h-1v-2Zm305,0q0.5,1.5,1,3h-1v-3Zm244,0,3,1v1C1188.73,872.032,1189.42,872.448,1188,871Zm-175,1c0.33,0.667.67,1.333,1,2h-1v-2Zm-373,1q0.5,1,1,2h-1v-2Zm465,0c0.33,1.667.67,3.333,1,5C1105.67,876.333,1105.33,874.667,1105,873Zm-189,1q0.5,1,1,2h-1v-2Zm37,1h2v1Zm-62,1c2.266,2.206,2.714.8,1,3v-1Q891.5,877,891,876Zm-256,2c1.457,1.417,1,.764,2,3h-1v-1Q635.5,879,635,878Zm-81,1q0.5,1,1,2h-1v-2Zm340,0c2.266,2.206,2.714.8,1,3v-1Q894.5,880,894,879Zm211,1v2h1C1105.67,881.333,1105.33,880.667,1105,880Zm-206,4c0.843,1.814,1.82,1.17,0,2v-2Zm205,0c2.67,10.176-.62,19.2,2,28h-1l-3-5v3c4.23,9.381,2.13,35.691,3,43q12,48.995,24,98h-1v-2c-0.67-1-1.33-2-2-3v3q1.995,7.005,4,14h2v-1c-2.05-2.95-2.77-6.1-3-11h1c1.19,6.96,3.38,10.79,4,17-2.24.03-.8-0.89-2,1,0.57,0.41,12.48,40.72,12,43,2.65,0.23,2.06.19,5,2v2h-2c-0.97-2.27-.55-1.58-2-3v1q3,3.495,6,7c-0.33-1-.67-2-1-3h1c8.79,13.74,28.72,18.62,29,40-5.56,8.99-14.45,28.77-12,42h-2c0.76,6.04-4.32,12.16-7,17-5,9.01-5.49,21.73-15,29-9.92,7.59-22.34,8.97-29,20-1.95-.43-0.62-1.45-2,0-3.31,2.38-1.91,1.85-3,5h-2c-8.56,9.15-9.61,17.54-23,21h-37c-20.29,10.23-41.6,25.5-71,15-0.027,2.24.886,0.8-1,2q-6-2.505-12-5c-2.75-1.91-.6-3.03-3-5-0.027,2.24.886,0.8-1,2-5.553-8.31-14.035-20.92-22-24q-9.5-.495-19-1c-12-2.44-19.992-7.72-30-14v6c21.326,20.96,54.406,29.24,69,57,3.346-1.52,9.891-.15,15,2-0.333.67-.667,1.33-1,2,7.8-.87,16.146,9.38,20,16,7.554-3.57,60.87-17.11,64-17,0.03-2.24-.89-0.8,1-2,13.22,5.79,50.14-15.31,56-27,3.11-6.19,1.39-15.39,7-21,9.3-9.3,26.96-10.45,35-21,9.58-12.58,11.07-31.81,17-50,8.63-26.49,27.69-37.51,17-73-3.02-10.02-14.38-14.42-20-22-5.77-7.78-9.05-20.44-12-28-0.33.67-.67,1.33-1,2-2.34-46.87-30.86-105.21-40-155-1.99-10.829-2.93-35.511-9-45ZM97,886v0Zm804,0c1.457,1.417,1,.764,2,3h-1v-1Q901.5,887,901,886Zm41,0,3,1C943.9,889.964,943.664,887.57,942,886Zm75,1c0.33,0.667.67,1.333,1,2h-1v-2Zm870,0v2h1C1887.67,888.333,1887.33,887.667,1887,887Zm-784,1c0.33,1.333.67,2.667,1,4C1103.67,890.667,1103.33,889.333,1103,888Zm784,2c0.33,1,.67,2,1,3h1C1888.03,890.73,1888.45,891.423,1887,890Zm-869,1c1.54,2.5,2.17,6.6,1,9C1018.67,897,1018.33,894,1018,891Zm-112,1q0.5,1,1,2h-1v-2Zm57,0q0.5,1,1,2h-1v-2Zm140,1v2h1C1103.67,894.333,1103.33,893.667,1103,893Zm-195,2c1.457,1.417,1,.764,2,3h-1v-1Q908.5,896,908,895Zm6,2q0.5,1,1,2h-1v-2Zm-4,1c1.672,1.736,1.193.894,2,4h-1v-2Q910.5,899,910,898Zm5,1q0.5,1,1,2h-1v-2Zm187,0v2h1C1102.67,900.333,1102.33,899.667,1102,899Zm-449,2q0.5,1,1,2h-1v-2Zm263,0q0.5,1,1,2h-1v-2Zm-356,1q0.5,1,1,2h-1v-2Zm352,0,3,3v2h-1v-1Q913,904,912,902Zm195,0c0.33,0.667.67,1.333,1,2h-1v-2Zm-453,1c1.369,1.769,1.4,1.993,2,5h-1v-2Q654.5,904.5,654,903Zm263,0q0.5,1,1,2h-1v-2Zm-84,1q0.5,1,1,2h-1v-2Zm269,0v2h1v-2h-1Zm101,0c2.27,0.968,1.58.552,3,2,0.33,0.333.67,0.667,1,1C1204.34,905.909,1204.58,905.93,1203,904Zm-647,1q0.5,1,1,2h-1v-2Zm651,2c2.27,0.968,1.58.552,3,2,0.33,0.333.67,0.667,1,1C1208.34,908.909,1208.58,908.93,1207,907Zm-563,1q0.5,1,1,2h-1v-2Zm12,0q0.5,1,1,2h-1v-2Zm-93,1v2h1Q563.5,910,563,909Zm470,0v0Zm-376,1c1.672,1.736,1.193.894,2,4h-1v-2Q657.5,911,657,910Zm-101,1q0.5,1,1,2h-1v-2Zm1331,0c0.33,0.667.67,1.333,1,2h-1v-2ZM563,912q0.5,4,1,8C564.283,914.925,565.428,915.563,563,912Zm471,1v0Zm186,0h2v1C1221.33,913.667,1220.67,913.333,1220,913Zm668,0c1.67,1.736,1.19.894,2,4h-1v-2C1888.67,914.333,1888.33,913.667,1888,913Zm-666,1,3,1v1C1222.73,915.032,1223.42,915.448,1222,914Zm-666,1q0.5,1.5,1,3h-1v-3Zm669,1,3,1C1226.9,919.964,1226.66,917.57,1225,916Zm13,0h2C1238.52,917.346,1239.78,916.919,1238,916Zm-400,1q0.5,1,1,2h-1v-2Zm403,2h2C1241.52,920.346,1242.78,919.919,1241,919Zm750,1c0.97,2.27.55,1.577,2,3C1992.33,922,1991.67,921,1991,920ZM563,922v2h1Q563.5,923,563,922Zm682,1q5.505,6,11,12h-2c-2.71-3.668-6.38-5.235-8-10C1245.67,924.333,1245.33,923.667,1245,923Zm-405,1h2v4h-1v-2Q840.5,925,840,924Zm-285,1q0.5,1,1,2h-1v-2Zm680,0h2v1C1236.33,925.667,1235.67,925.333,1235,925Zm-262,1q0.5,1,1,2h-1v-2Zm265,1c2.29,1.674,2.78,2.075,4,5h-1c-0.33-.333-0.67-0.667-1-1C1239.33,929.667,1238.67,928.333,1238,927Zm-134,1c0.33,1,.67,2,1,3h-1v-3Zm-120,1q0.5,1,1,2h-1v-2Zm-430,1q0.5,1,1,2h-1v-2Zm753,2,3,1Zm-746,1q0.5,1,1,2h-1v-2Zm103,0h2v1Zm579,0h2v1C1244.33,933.667,1243.67,933.333,1243,933Zm67,0h2v1C1311.33,933.667,1310.67,933.333,1310,933Zm-65,1,3,1v1C1245.73,935.032,1246.42,935.448,1245,934Zm67,0c1.67,0.333,3.33.667,5,1v1h-3C1313.33,935.333,1312.67,934.667,1312,934Zm-468,1q0.5,2,1,4h1Q845,937,844,935Zm92,0c0.843,1.814,1.82,1.17,0,2v-2Zm-281,1h2v1Zm593,0,3,1v1C1248.73,937.032,1249.42,937.448,1248,936Zm10,1c2.57,1.794,3.69,2.8,5,6h-1C1260.39,940.652,1259.22,939.967,1258,937Zm-7,1h2v1C1252.33,938.667,1251.67,938.333,1251,938Zm2,1h2v1C1254.33,939.667,1253.67,939.333,1253,939Zm92,2c0.46,2.759,3.34,2.187,9,2v-1Zm-689,2q0.5,1,1,2h-1v-2Zm7,1c3.213,1.115,1.262-.293,3,2h-1Zm-104,4v0Zm291,0c0.968,2.27.552,1.577,2,3Zm266,1v0Zm-440,2c2.266,2.206,2.714.8,1,3v-1Q676.5,952,676,951Zm313,0q0.5,1.5,1,3h-1v-3Zm1,3q1,2,2,4h-1v-1Q990.5,955.5,990,954Zm127,0c0.33,1,.67,2,1,3h-1v-3Zm-558,2v0Zm471,2c2.34,1.734.84-.182,2,3h-1C1030.67,960,1030.33,959,1030,958Zm86,0h2C1116.52,959.346,1117.78,958.919,1116,958Zm-125,2q0.5,1,1,2h-1v-2Zm-433,1c2.331,2.494,2.213,6.845,2,12h-1Q558.5,967,558,961Zm424,0c3.307,2.2,4.662,2.992,3,5v-1C983.046,963.429,983.129,963.631,982,961Zm49,2c0.33,0.667.67,1.333,1,2h-1v-2Zm-443,1q0.5,1,1,2h-1v-2Zm443,2c0.33,0.667.67,1.333,1,2h-1v-2Zm-443,1q0.5,1,1,2C587.185,968.609,586.284,967.363,588,967Zm126,1h2v1Zm-14,1h2v2h-1Q700.5,970,700,969Zm-6,1h2v1Zm338,0c0.33,0.667.67,1.333,1,2h-1v-2Zm-446,1h2v1Zm116,0h2v1Zm128,0,2,2Zm217,0c0.33,1,.67,2,1,3h-1v-3Zm-235,1,5,2C815.231,972.631,815.007,972.6,812,972Zm-252,1q0.5,1,1,2h-1v-2Zm248,0c0.323,3.587-1.981,2,0,4l1,1v-3c1.775,1.557,1.443,1.832,4,3q0.5-2,1-4Zm-247,2q0.5,1,1,2h-1v-2Zm1333,0c0.33,1,.67,2,1,3v-3h-1ZM714,976h2v1Zm27,4h2v1Zm255,2c1.954,1.571,1.871,1.369,3,4h-1l-1-1Q996.5,983.5,996,982Zm-450,4q0.5,1,1,2h-1v-2Zm456,3c0.33,0.667.67,1.333,1,2h-1v-2Zm992,0c0.33,0.667.67,1.333,1,2h-1v-2Zm-100,2v2h1v-2h-1ZM546,992q0.5,1,1,2h-1v-2Zm224,0q0.5,1,1,2h-1v-2Zm-224,3q1,2,2,4h-1v-1Q546.5,996.5,546,995Zm21,0h2v1Zm476,11v0Zm83,0c0.33,0.67.67,1.33,1,2h-1v-2Zm-348,1h2C778.521,1008.35,779.776,1007.92,778,1007Zm-228,1c0.333,0.67.667,1.33,1,2h-1v-2Zm995,0c3.33,0.67,6.67,1.33,10,2h1v1h-4C1549.76,1009.82,1546.72,1009.6,1545,1008Zm-769,1c0.333,0.67.667,1.33,1,2h-1v-2Zm760,0h2v1C1537.33,1009.67,1536.67,1009.33,1536,1009Zm21,0h2C1557.52,1010.35,1558.78,1009.92,1557,1009Zm8,1h2v1C1566.33,1010.67,1565.67,1010.33,1565,1010Zm2,1h2v1C1568.33,1011.67,1567.67,1011.33,1567,1011Zm-789,1c2.843,1.42,1.544.2,3,3,0.333,0.33.667,0.67,1,1h-2C779.333,1014.67,778.667,1013.33,778,1012Zm360,3c0.33,0.67.67,1.33,1,2h-1v-2Zm-357,2c1.786,1.89,1.46,1.36,2,5h-1C781.667,1020.33,781.333,1018.67,781,1017Zm392,1c1.56,2.48,2.11,2.35,3,6h-1v-2c-1-.67-2-1.33-3-2v1q2.505,4.5,5,9c0.67-.33,1.33-0.67,2-1,3.52,16.96,15.4,26,23,40q4.995,12,10,24c35.27,57.43,91.14,81.02,165,96h66v-1c-11.86-5.77-34.93-8.33-44-14-0.03,2.24.89,0.8-1,2-6.74-6.73-20.67-4.7-31-8q-26.49-10.005-53-20v1c0.67,0.33,1.33.67,2,1h-3c-8.08-10.28-27.07-16.71-36-23,0.04-6.43-17.58-14.51-25-20-16.65-12.31-31.39-32.49-44-49-6.75-8.83-28.74-23.75-27-36C1177.84,1021.66,1177.11,1019.73,1173,1018Zm4,0,2,2Zm-626,2q0.5,1.5,1,3h-1v-3Zm1177,1h2v1C1729.33,1021.67,1728.67,1021.33,1728,1021Zm-945,1c0.333,0.67.667,1.33,1,2h-1v-2Zm948,0h2v1C1732.33,1022.67,1731.67,1022.33,1731,1022Zm3,1h2v1C1735.33,1023.67,1734.67,1023.33,1734,1023Zm-558,1c0.67,1.33,1.33,2.67,2,4h-1v-1C1176.67,1026,1176.33,1025,1176,1024Zm720,3v0Zm-1336,1c0.333,0.67.667,1.33,1,2h-1v-2Zm579,0c0.33,0.67.67,1.33,1,2h-1v-2Zm1,3c0.33,0.67.67,1.33,1,2h-1v-2Zm-579,1c0.333,0.67.667,1.33,1,2h-1v-2Zm-1,4q0.5,1.5,1,3h-1v-3Zm581,0c2.34,1.73.84-.18,2,3h-1v-2Zm-283,1c2.886,17.88,24.286,29.59,31,49,5,14.46.651,35.36,14,41,1.333,0.33,2.667.67,4,1,9.12-8.32,12.8-14.09,21-23-0.295-12.25-8.675-25.9-12-37-1.94-6.48.683-15.77-4-23h-4v2c-0.345,4.14,2,16.22,4,21h-2c3.085,3.26,4.312,9.1,6,13h-2c-1.419-2.21.181-.57-2-2,1.506,5.09,2.8,19.08,2,21-1.734,3.31-1.26,2.68-6,3-0.667-.33-1.333-0.67-2-1-1.484-2.41-8-21-8-21C896.412,1081.02,868.769,1041.4,858,1037Zm-111,2c-9.874,14.17-14.28,46.2-22,64-1.758,4.05-10.36,21.81-8,24-11.677,14.76-20.759,35.85-30,52-0.6,1.04-10.109,15.37-5,17-34.911,26.91-48.5,66.85-66,113-9.28,24.48-14.844,55.7-22,76-2.757,7.82-5.59,27.37-3,30v1c3.1-.85,3.392-0.69,5-3,2.564-2.97-.63-4.04-2-6,7.3-.77,5.251-12.83,9-20,4.117-7.88,16.957-38.73,20-54h1v3l15-33c1.624-2.11,1.109.68,2-2,0.333-1.33.667-2.67,1-4,0.667,0.33,1.333.67,2,1q-0.5-1.5-1-3c0.667,0.33,1.333.67,2,1q-0.5-1.5-1-3h3v-4c0.54,1.31.741,0.83,1,1,4.869-5.44,4.666-12.52,9-19,6.47-9.67,15.241-23.34,24-36,4.084-5.9,16.663-16.84,17-22,0,0,1.773-2.75,2-3,3.59-3.88,11.638-13.21,11-16l12-27c0.253-1.39-.032-1.2,1-1,1.374,1.21,5.4-11.56,6-13,4.279-10.31,15.928-35.56,14-46-3.512-19.03,17.356-50.61,7-66C749.667,1040.33,748.333,1039.67,747,1039Zm396,0c0.33,0.67.67,1.33,1,2h-1v-2Zm-593,3v0Zm594,1c0.33,0.67.67,1.33,1,2h-1v-2Zm-352,1h2l1,7h-1v-1Q793,1047,792,1044Zm260,2h2v1C1053.33,1046.67,1052.67,1046.33,1052,1046Zm-256,1h2v1C797.333,1047.67,796.667,1047.33,796,1047Zm113,0h2l1,7h-1v-1Q910,1050,909,1047Zm279,0c0.33,0.67.67,1.33,1,2h-1v-2Zm606,0h2v1C1795.33,1047.67,1794.67,1047.33,1794,1047Zm3,1h2v1C1798.33,1048.67,1797.67,1048.33,1797,1048Zm-117,1c4.16,8.5,45.26,24.04,58,32,29.53,18.44,66.72,40.18,93,62,7.41,6.15,15.56,19.39,26,26v-3c0.67,1.33,1.33,2.67,2,4h1v-2c-10.14-19.46-28.63-33.76-47-48-7-5.43-11.69-14.9-23-21-0.03,2.24.89,0.8-1,2-18.1-13.37-38.15-26.69-59-37-12.89-6.37-26.38-6.73-36-12-0.03,2.24.89,0.8-1,2-1.88-2.3-1.38-2.09-5-3v1c0.67,0.33,1.33.67,2,1h-3C1684.62,1050.84,1683.04,1051.02,1680,1049Zm-1130,1v0Zm363,0c0.333,0.67.667,1.33,1,2h-1v-2Zm764,0c1.81,0.84,1.17,1.82,2,0h-2Zm-339,1c1.33,1,2.67,2,4,3C1340.67,1053,1339.33,1052,1338,1051Zm-2,1c4.55,8.03,22.21,22.85,37,20v2c5.3-1.95,13.73,4.06,21,5,0.02-.02,10.5,4.46,15,5,0,0,29.58,5.18,35,6v-3c1.32,2.01.81,1.71,3,3,0.45-2.85-.43-1.36,4-2,6.82,3.28,14.38,2.97,20,7-0.98.21-.5,0.14,0,1l12,6c-0.33-1-.67-2-1-3h2c10.68,8.32,28.93,11.45,31,28-1,1.33-2,2.67-3,4h-11v1c0.67,0.33,1.33.67,2,1h-3c-5.84-3.81-33.99-15.45-45-11-10.6-3.83-29.98-9.22-46-13h-13v2c1,0.33,2,.67,3,1-2.21,1.42-.57-0.18-2,2,7.86,4.41,63.44,26.18,71,22,7.48,4.75,28.96,12.59,41,18v2c16.26,13.84,34.85,22.92,47,39,30.59,40.47,50.81,130.05,8,168,0.33,0.67.67,1.33,1,2,1,0.33,2,.67,3,1l16-13c25.62-31.52,8.81-95.22-1-134h-1v2c0.33,1,.67,2,1,3h-1v-2c-6.81-10.08-9.15-23.35-14-33q-12.495-22.005-25-44c-7.92-18.18-13.9-39.12-29-50-9.21-6.63-23.76-9.6-38-14v2c3,0.67,6,1.33,9,2v2h-1c-2.67-1-5.33-2-8-3-0.67-1-1.33-2-2-3-7.08,1.65-36.23-1.22-45-4-6.31-2-18.81-8.82-27-5,3,0.67,6,1.33,9,2-2.33-.33-4.67-0.67-7-1-0.03,2.24.89,0.8-1,2-4.44-4.13-15.51-1.89-21-5h10c-10.97-1.42-16.54-2.73-24-2v-2C1364.07,1069.75,1341.38,1055.43,1336,1052Zm468,1c1,0.33,2,.67,3,1v1C1804.73,1054.03,1805.42,1054.45,1804,1053Zm-891,1,3,12h-1v-1A11.5,11.5,0,0,1,913,1054Zm-113,3h2C800.521,1058.35,801.776,1057.92,800,1057Zm543,0c2,1.33,4,2.67,6,4v1h-2v-1C1343.85,1059.64,1344.4,1060.1,1343,1057Zm-295,1c1.46,1.42,1.01.76,2,3h-1v-1C1048.67,1059.33,1048.33,1058.67,1048,1058Zm651,1h2v1h-2v-1Zm3,1h2v1C1703.33,1060.67,1702.67,1060.33,1702,1060Zm-953,1q0.5,1.5,1,3h-1v-3Zm958,0h2v1C1708.33,1061.67,1707.67,1061.33,1707,1061Zm-565,1c0.33,1,.67,2,1,3h-1v-3Zm207,0h2v1C1350.33,1062.67,1349.67,1062.33,1349,1062Zm-798,1v0Zm802,0c0.84,1.81,1.82,1.17,0,2v-2Zm-222,1v2h1C1131.67,1065.33,1131.33,1064.67,1131,1064Zm226,1c2.27,2.21,2.71.8,1,3C1356.53,1065.25,1357.39,1067.68,1357,1065Zm4,4c1,0.33,2,.67,3,1C1363,1069.67,1362,1069.33,1361,1069Zm-156,1c1.92,2.3,2.71,1.72,0,3v-3Zm159,0c1,0.33,2,.67,3,1C1366,1070.67,1365,1070.33,1364,1070Zm29,0c2.67,0.67,5.33,1.33,8,2v-2h-8Zm-26,1h2v1C1368.33,1071.67,1367.67,1071.33,1367,1071Zm358,1c1,0.33,2,.67,3,1v1C1725.73,1073.03,1726.42,1073.45,1725,1072Zm-682,1c0.33,0.67.67,1.33,1,2h-1v-2Zm363,2h2v1C1407.33,1075.67,1406.67,1075.33,1406,1075Zm324,0h2v1h-2v-1Zm-314,1c2,0.33,4,.67,6,1v2c0.33,0.67.67,1.33,1,2h-1C1420,1079.33,1418,1077.67,1416,1076Zm316,0h2v1C1733.33,1076.67,1732.67,1076.33,1732,1076Zm14,0c1.67,0.33,3.33.67,5,1v1h-2C1748,1077.33,1747,1076.67,1746,1076Zm-704,2c0.33,0.67.67,1.33,1,2h-1v-2Zm12,0c0.33,0.67.67,1.33,1,2h-1v-2Zm369,0h2v1C1424.33,1078.67,1423.67,1078.33,1423,1078Zm328,0q4.995,2.505,10,5v1h-2Q1755,1081,1751,1078Zm-326,1c1.67,0.67,3.33,1.33,5,2C1426.35,1080.52,1426.87,1080.76,1425,1079Zm-215,1c0.67,1.67,1.33,3.33,2,5h-1v-1C1210.67,1082.67,1210.33,1081.33,1210,1080Zm190,0c1,0.33,2,.67,3,1C1402,1080.67,1401,1080.33,1400,1080Zm-484,1c1.457,1.42,1,.76,2,3h-1v-1C916.667,1082.33,916.333,1081.67,916,1081Zm139,0c0.67,1.67,1.33,3.33,2,5h-1v-1C1055.67,1083.67,1055.33,1082.33,1055,1081Zm348,0h2v1h-2v-1Zm48,0h2v1C1452.33,1081.67,1451.67,1081.33,1451,1081Zm-46,1h2v1C1406.33,1082.67,1405.67,1082.33,1405,1082Zm55,0h2v1C1461.33,1082.67,1460.67,1082.33,1460,1082Zm305,0,2,2Zm-299,1h2C1466.52,1084.35,1467.78,1083.92,1466,1083Zm6,0c0.84,1.81,1.82,1.17,0,2v-2Zm-3,1h2v1C1470.33,1084.67,1469.67,1084.33,1469,1084Zm292,0h2v1C1762.33,1084.67,1761.67,1084.33,1761,1084Zm2,1h2v1C1764.33,1085.67,1763.67,1085.33,1763,1085Zm-958,1h2c-0.333,1.33-.667,2.67-1,4C805.667,1088.67,805.333,1087.33,805,1086Zm684,0c0.33,0.67.67,1.33,1,2h-1v-2Zm276,0h2v1C1766.33,1086.67,1765.67,1086.33,1765,1086Zm-325,1h2v1h-2v-1Zm327,0h2v1C1768.33,1087.67,1767.67,1087.33,1767,1087Zm-274,1h2v1C1494.33,1088.67,1493.67,1088.33,1493,1088Zm-748,1q0.5,1.5,1,3h-1v-3Zm750,0h2v1C1496.33,1089.67,1495.67,1089.33,1495,1089Zm275,0h2v1C1771.33,1089.67,1770.67,1089.33,1770,1089Zm-963,1c0.333,0.67.667,1.33,1,2h-1v-2Zm346,0c0.84,1.81,1.82,1.17,0,2v-2Zm346,0h2v1C1500.33,1090.67,1499.67,1090.33,1499,1090Zm-341,1c0.33,0.67.67,1.33,1,2h-1v-2Zm-424,1c0.843,1.81,1.82,1.17,0,2v-2Zm74,0c0.333,0.67.667,1.33,1,2h-1v-2Zm334,0v0Zm360,0h2v1C1503.33,1092.67,1502.67,1092.33,1502,1092Zm487,0c0.84,1.81,1.82,1.17,0,2v-2Zm-1245,1q0.5,1.5,1,3h-1v-3Zm479,1c0.33,0.67.67,1.33,1,2h-1v-2Zm257,0c1,0.33,2,.67,3,1v1C1480.73,1095.03,1481.42,1095.45,1480,1094Zm26,0h2v1C1507.33,1094.67,1506.67,1094.33,1506,1094Zm-35,1h2v1C1472.33,1095.67,1471.67,1095.33,1471,1095Zm13,0c1,0.33,2,.67,3,1C1486,1095.67,1485,1095.33,1484,1095Zm-260,1c1.46,1.42,1.01.76,2,3h-1v-1C1224.67,1097.33,1224.33,1096.67,1224,1096Zm7,0c1,0.33,2,.67,3,1v1C1231.73,1097.03,1232.42,1097.45,1231,1096Zm256,0c1,0.33,2,.67,3,1C1489,1096.67,1488,1096.33,1487,1096Zm-744,1q0.5,1.5,1,3h-1v-3Zm734,0c1.67,0.33,3.33.67,5,1v1h-3Zm13,0c2.34,1.73.84-.18,2,3h-1C1490.67,1099,1490.33,1098,1490,1097Zm297,0,2,2Zm-627,1c0.33,0.67.67,1.33,1,2h-1v-2Zm345,0c1,0.33,2,.67,3,1v1C1505.73,1099.03,1506.42,1099.45,1505,1098Zm-279,1c1.46,1.42,1.01.76,2,3h-1v-1C1226.67,1100.33,1226.33,1099.67,1226,1099Zm4,0c3.08,2.32,3.67,1.94,2,4v-1C1230.54,1100.58,1230.99,1101.24,1230,1099Zm280,0c1,0.33,2,.67,3,1v1C1510.73,1100.03,1511.42,1100.45,1510,1099Zm-768,2v0Zm772,0c2.57,1.79,3.69,2.81,5,6h-1C1516.39,1104.65,1515.22,1103.97,1514,1101Zm4,0c1.46,1.42,1.01.76,2,3h-1v-1C1518.67,1102.33,1518.33,1101.67,1518,1101Zm-593,1v0Zm237,0c0.33,0.67.67,1.33,1,2h-1v-2Zm630,0h2v1C1793.33,1102.67,1792.67,1102.33,1792,1102Zm-307,1c1.67,0.67,3.33,1.33,5,2C1488.23,1103.63,1488.01,1103.6,1485,1103Zm-577,1h2v1C909.333,1104.67,908.667,1104.33,908,1104Zm255,0c0.33,0.67.67,1.33,1,2h-1v-2Zm61,0c2.95,2.04,3.98,2.78,5,7h-1v-2C1225.71,1107.33,1225.22,1106.92,1224,1104Zm555,0h2v1C1780.33,1104.67,1779.67,1104.33,1779,1104Zm11,0h2v1C1791.33,1104.67,1790.67,1104.33,1790,1104Zm-895,1c0.333,0.67.667,1.33,1,2h-1v-2Zm260,1a13.027,13.027,0,0,1,4,5h-2v-1C1156.33,1108.67,1155.67,1107.33,1155,1106Zm337,0c0.67,0.33,1.33.67,2,1C1493.33,1106.67,1492.67,1106.33,1492,1106Zm290,0c2.93,0.96,3.94,2.33,6,4C1785.92,1112.27,1783.26,1107.71,1782,1106Zm12,0h2v1h-2v-1Zm-271,1c1.95,1.57,1.87,1.37,3,4h-1l-1-1C1523.67,1109,1523.33,1108,1523,1107Zm-358,1c0.33,0.67.67,1.33,1,2h-1v-2Zm76,0h2v1C1242.33,1108.67,1241.67,1108.33,1241,1108Zm559,0c1,0.33,2,.67,3,1v1C1800.73,1109.03,1801.42,1109.45,1800,1108Zm-557,1h2C1243.52,1110.35,1244.78,1109.92,1243,1109Zm5,0c2.27,2.21,2.71.8,1,3v-1C1248.67,1110.33,1248.33,1109.67,1248,1109Zm-421,1c1.457,1.42,1,.76,2,3h-1v-1C827.667,1111.33,827.333,1110.67,827,1110Zm961,0c1,0.33,2,.67,3,1v1C1788.73,1111.03,1789.42,1111.45,1788,1110Zm-629,1h2C1159.52,1112.35,1160.78,1111.92,1159,1111Zm363,0c0.33,0.67.67,1.33,1,2h-1v-2Zm4,0,3,3v2h-1v-1C1527.33,1113.67,1526.67,1112.33,1526,1111Zm-369,1c0.33,0.67.67,1.33,1,2h-1v-2Zm89,0h2C1246.52,1113.35,1247.78,1112.92,1246,1112Zm153,0c1,0.33,2,.67,3,1C1400.9,1115.96,1400.66,1113.57,1399,1112Zm406,0c2.66,1.09,2.42,1.07,4,3l1,1C1807.04,1114.83,1806.69,1114.26,1805,1112Zm-801,1h2v1C1005.33,1113.67,1004.67,1113.33,1004,1113Zm157,0c1.46,1.42,1.01.76,2,3h-1v-1C1161.67,1114.33,1161.33,1113.67,1161,1113Zm92,1h2v1C1254.33,1114.67,1253.67,1114.33,1253,1114Zm-104,2c0.33,0.67.67,1.33,1,2h-1v-2Zm8,0c1.33,0.33,2.67.67,4,1v2C1158.34,1117.91,1158.58,1117.93,1157,1116Zm247,0h2v1C1405.33,1116.67,1404.67,1116.33,1404,1116Zm125,0c0.33,1,.67,2,1,3h-1v-3Zm-272,1c1,0.33,2,.67,3,1v1C1257.73,1118.03,1258.42,1118.45,1257,1117Zm149,0c1,0.33,2,.67,3,1C1408,1117.67,1407,1117.33,1406,1117Zm-158,1c1.95,1.57,1.87,1.37,3,4h-1l-1-1C1248.67,1120,1248.33,1119,1248,1118Zm161,0h2v1C1410.33,1118.67,1409.67,1118.33,1409,1118Zm115,0h2v1h-2v-1Zm-264,1h2v1C1261.33,1119.67,1260.67,1119.33,1260,1119Zm151,0h2v1C1412.33,1119.67,1411.67,1119.33,1411,1119Zm119,0c0.33,0.67.67,1.33,1,2h-1v-2Zm-363,1c1,1.33,2,2.67,3,4h-2v-1C1167.67,1122,1167.33,1121,1167,1120Zm247,0c1,0.33,2,.67,3,1C1416,1120.67,1415,1120.33,1414,1120Zm19,0h2v1C1434.33,1120.67,1433.67,1120.33,1433,1120Zm-262,1c0.33,0.67.67,1.33,1,2h-1v-2Zm264,0c2.27,0.97,1.58.55,3,2l1,1C1436.34,1122.91,1436.58,1122.93,1435,1121Zm96,0c0.33,0.67.67,1.33,1,2h-1v-2Zm-676,1c1.457,1.42,1,.76,2,3h-1v-1C855.667,1123.33,855.333,1122.67,855,1122Zm318,0h2C1173.52,1123.35,1174.78,1122.92,1173,1122Zm91,0h2v1C1265.33,1122.67,1264.67,1122.33,1264,1122Zm156,0c1.33,0.33,2.67.67,4,1C1422.67,1122.67,1421.33,1122.33,1420,1122Zm108,1a15.777,15.777,0,0,1,4,6h-1C1529.44,1126.52,1528.89,1126.65,1528,1123Zm4,0c0.33,0.67.67,1.33,1,2h-1v-2Zm-280,1h2c0.33,1.33.67,2.67,1,4h-2C1252.67,1126.67,1252.33,1125.33,1252,1124Zm177,0h2v1C1430.33,1124.67,1429.67,1124.33,1429,1124Zm-373,1c3.51,0.25,4.96.6,7,2C1058.19,1126.7,1058.07,1127.18,1056,1125Zm204,0h2v1C1261.33,1125.67,1260.67,1125.33,1260,1125Zm172,0c1.33,0.33,2.67.67,4,1v1h-2Zm-369,2h2C1063.52,1128.35,1064.78,1127.92,1063,1127Zm98,0c2.27,2.21,2.71.8,1,3v-1C1161.67,1128.33,1161.33,1127.67,1161,1127Zm21,0c1.67,1.74,1.19.89,2,4h-1v-1C1182.67,1129,1182.33,1128,1182,1127Zm254,0h2v1C1437.33,1127.67,1436.67,1127.33,1436,1127Zm-179,1h3c0.67,1.67,1.33,3.33,2,5h-1C1259.67,1131.33,1258.33,1129.67,1257,1128Zm182,0h2v1C1440.33,1128.67,1439.67,1128.33,1439,1128Zm6,1c1.33,0.33,2.67.67,4,1C1447.67,1129.67,1446.33,1129.33,1445,1129Zm87,0c0.33,0.67.67,1.33,1,2h-1v-2Zm-44,1h2v1C1489.33,1130.67,1488.67,1130.33,1488,1130Zm-35,1h2v1C1454.33,1131.67,1453.67,1131.33,1453,1131Zm80,0v0Zm-515,1c1.46,1.42,1.01.76,2,3h-1v-1C1018.67,1133.33,1018.33,1132.67,1018,1132Zm245,0c0.84,1.81,1.82,1.17,0,2v-2Zm14,1c3.08,2.32,3.67,1.94,2,4v-1C1277.54,1134.58,1277.99,1135.24,1277,1133Zm-424,1h2C853.521,1135.35,854.776,1134.92,853,1134Zm420,1h2v1C1274.33,1135.67,1273.67,1135.33,1273,1135Zm200,0h2C1473.52,1136.35,1474.78,1135.92,1473,1135Zm-633,1c2.956,1.17,3.314,1.74,5,4,0.333,0.33.667,0.67,1,1C842.776,1139.74,841.808,1138.54,840,1136Zm441,1c1,0.33,2,.67,3,1v1C1281.73,1138.03,1282.42,1138.45,1281,1137Zm-98,1h2v1C1184.33,1138.67,1183.67,1138.33,1183,1138Zm88,0c1.33,0.33,2.67.67,4,1v1h-2Zm-417,1h2v1C855.333,1139.67,854.667,1139.33,854,1139Zm425,0h2c-0.33,1.33-.67,2.67-1,4C1279.67,1141.67,1279.33,1140.33,1279,1139Zm259,0c0.33,0.67.67,1.33,1,2h-1v-2Zm-530,1h3c0.33,0.67.67,1.33,1,2l1,1h-2Zm509,0v0Zm-15,1c0.33,0.67.67,1.33,1,2h-1v-2Zm37,0c0.33,0.67.67,1.33,1,2h-1v-2Zm-266,1c0.33,0.67.67,1.33,1,2h-1v-2Zm3,1c3.08,2.32,3.67,1.94,2,4C1276.72,1145.09,1276.87,1146,1276,1143Zm227,0c0.84,1.81,1.82,1.17,0,2v-2Zm37,0c0.33,0.67.67,1.33,1,2h-1v-2Zm-535,1h2v1C1006.33,1144.67,1005.67,1144.33,1005,1144Zm536,1c0.33,0.67.67,1.33,1,2h-1v-2Zm-542,2c0.333,0.67.667,1.33,1,2h-1v-2Zm543,0c0.33,0.67.67,1.33,1,2h-1v-2Zm-258,2c0.84,1.81,1.82,1.17,0,2v-2Zm32,1h2v1C1317.33,1150.67,1316.67,1150.33,1316,1150Zm228,0c0.33,0.67.67,1.33,1,2h-1v-2Zm296,0c1,0.33,2,.67,3,1v1C1840.73,1151.03,1841.42,1151.45,1840,1150Zm-554,1h2C1286.52,1152.35,1287.78,1151.92,1286,1151Zm32,0h2v1C1319.33,1151.67,1318.67,1151.33,1318,1151Zm-17,1h2C1301.52,1153.35,1302.78,1152.92,1301,1152Zm-444,1c2.27,0.97,1.577.55,3,2,0.333,0.33.667,0.67,1,1C858.337,1154.91,858.579,1154.93,857,1153Zm433,0c1,0.33,2,.67,3,1C1292,1153.67,1291,1153.33,1290,1153Zm3,1c1.67,0.67,3.33,1.33,5,2v1h-2Zm8,0c1.67,0.67,3.33,1.33,5,2,0.33,1,.67,2,1,3h-2C1303.56,1156.46,1302.45,1156.53,1301,1154Zm15,0c2.27,0.97,1.58.55,3,2l1,1C1317.34,1155.91,1317.58,1155.93,1316,1154Zm529,0c1.67,0.67,3.33,1.33,5,2v2C1847.04,1156.83,1846.69,1156.26,1845,1154Zm132,0c0.33,1,.67,2,1,3v-3h-1Zm-983,1q0.5,1.5,1,3h-1v-3Zm516,0c1.33,0.33,2.67.67,4,1v1h-2Zm36,0c0.33,0.67.67,1.33,1,2h-1v-2Zm-237,1c2.83,1.94,4.59,3.54,6,7h-2C1311.67,1160.67,1310.33,1158.33,1309,1156Zm-595,1v0Zm326,0v2h-3c-13.12,13.67-1.22,41.72,0,63q-6,6.495-12,13c-3.33.67-6.67,1.33-10,2-0.33,1.67-.67,3.33-1,5a112.9,112.9,0,0,0,11,3c12.77,2.69,21.66-.26,28-6,22.41-20.32-5.06-41.49-7-63h1c0.33,0.67.67,1.33,1,2-0.41-6.24-.08-14.47-4-21h-4Zm258,0q4.995,3,10,6l1,1h-2Q1302.5,1160.505,1298,1157Zm22,0h2v1C1321.33,1157.67,1320.67,1157.33,1320,1157Zm194,0h2v1C1515.33,1157.67,1514.67,1157.33,1514,1157Zm-806,1c0.333,0.67.667,1.33,1,2h-1v-2Zm1144,0c1,1.33,2,2.67,3,4C1851.38,1160.27,1851.87,1161,1852,1158Zm-1127,2c0.333,0.67.667,1.33,1,2h-1v-2Zm819,0c1,0.33,2,.67,3,1v1C1544.73,1161.03,1545.42,1161.45,1544,1160Zm3,3c0.33,0.67.67,1.33,1,2h-1v-2Zm-237,2h2v1C1311.33,1165.67,1310.67,1165.33,1310,1165Zm9,2c1,0.33,2,.67,3,1v1C1319.73,1168.03,1320.42,1168.45,1319,1167Zm-334,1c0.843,1.81,1.82,1.17,0,2v-2Zm566,0c0.33,0.67.67,1.33,1,2h-1v-2Zm-229,1c1,0.33,2,.67,3,1C1324,1169.67,1323,1169.33,1322,1169Zm-621,1c0.333,0.67.667,1.33,1,2h-1v-2Zm851,0c0.33,0.67.67,1.33,1,2h-1v-2Zm-518,1c0.33,1,.67,2,1,3h-1v-3Zm824,0,2,2Zm-526,1h2v1h-2v-1Zm199,0c1,0.33,2,.67,3,1v1C1531.73,1173.03,1532.42,1173.45,1531,1172Zm-651,1c0.333,0.67.667,1.33,1,2h-1v-2Zm675,0c1,1.33,2,2.67,3,4h-2v-1C1555.67,1175,1555.33,1174,1555,1173Zm-682,1q0.5,7.005,1,14c1,0.33,2,.67,3,1v-1c0.313-.68-0.23-0.3,1-1,0.333,0.33.667,0.67,1,1-3.227-3.64-4.038-1.67-4-11Zm662,1c2.27,0.97,1.58.55,3,2l1,1C1536.34,1176.91,1536.58,1176.93,1535,1175Zm-157,1c0.84,1.81,1.82,1.17,0,2v-2Zm-878,1c-1.578,2.41-1.919,3.38-2,8,3.1,5.93,3.482,13.71,5,18-0.667-.33-1.333-0.67-2-1v2c1.263,2.98,2.266,15.33,0,22,2.718,0.45,1.871.71,2,6,5.09,10.51,1.969,50.69,4,66-3.209.94-2.231,14.82-2,22,3.02,3.74-1.654,18.25-1,29,1.506,24.77-4.82,46.28-5,71h-2c3.191,4.57-1.119,23.88-3,33-4.275,20.72-1.046,59.7,11,72,1.333-.67,2.667-1.33,4-2a11.578,11.578,0,0,1-2-3h2c0.333,0.33.667,0.67,1,1-1.8-3.43-2.9-4.41-5-10h2c0.333,1.67.667,3.33,1,5h1c0.168-4.57-.864-2.07,1-5-0.667-.33-1.333-0.67-2-1,2.426-2.1,1.383-.84,1-5,0.667,0.33,1.333.67,2,1-1.2-2.32-1.494-2.28-2-6,2.65-5.43,5.622-27.8,6-33q-0.5-7.5-1-15c8.99-20.54,28.892-94.1,21-120,3.141-.36,1.15,1.56,3-1-3.555-2.47-3.308-5.3-3-9h1q0.5,1.5,1,3c0.914-46.12-14.414-77.4-26-109C507.162,1205.53,507.771,1183.91,500,1177Zm380,0c0.333,0.67.667,1.33,1,2h-1v-2Zm469,0h2v1C1350.33,1177.67,1349.67,1177.33,1349,1177Zm209,0c0.33,0.67.67,1.33,1,2h-1v-2Zm-207,1c2.67,0.67,5.33,1.33,8,2h-5C1353,1179.33,1352,1178.67,1351,1178Zm199,0c1.46,1.42,1.01.76,2,3h-1v-1C1550.67,1179.33,1550.33,1178.67,1550,1178Zm-503,1,2,2Zm493,0h2v2h-1C1540.67,1180.33,1540.33,1179.67,1540,1179Zm20,1c0.33,0.67.67,1.33,1,2h-1v-2Zm-200,4h2v1C1361.33,1184.67,1360.67,1184.33,1360,1184Zm-652,1c0.333,0.67.667,1.33,1,2h-1v-2Zm688,0h2v1C1397.33,1185.67,1396.67,1185.33,1396,1185Zm3,0h2v1C1400.33,1185.67,1399.67,1185.33,1399,1185Zm5,0h2v1C1405.33,1185.67,1404.67,1185.33,1404,1185Zm-31,1c1,0.33,2,.67,3,1h-3v-1Zm-204,2c0.33,1,.67,2,1,3h-1v-3Zm803,0c0.33,0.67.67,1.33,1,2h-1v-2Zm-1284,2v0Zm353,1c0.33,0.67.67,1.33,1,2h-1v-2Zm127,3c0.33,0.67.67,1.33,1,2h-1v-2Zm-132,1c0.33,0.67.67,1.33,1,2h-1v-2Zm-910,3c0.333,0.67.667,1.33,1,2h-1v-2Zm852,4c0.333,0.67.667,1.33,1,2h-1v-2Zm349,0c6.64,7.85,22.34,9.34,34,12,11.63,2.65,23.08-2.63,40,1,11.59,2.48,31.28,5.27,44,8,0.03-2.24-.89-0.8,1-2,6.86,9.78,31.55,9.68,42,16,11.26,6.81,19.02,19.75,27,30,17.88,22.98,41.3,37.92,40,75,1.33,0.33,2.67.67,4,1v-1l-3-3h2c2.01,1.52.63,1.95,3,1,16.91-22.51-11.07-69.42-20-81C1498.51,1203.89,1406.8,1209.48,1327,1202Zm242,0c0.67,1,1.33,2,2,3h-2v-3Zm-1071,6c0.667,0.67,1.333,1.33,2,2C499.333,1209.33,498.667,1208.67,498,1208Zm552,0c1.95,1.57,1.87,1.37,3,4h-1l-1-1C1050.67,1210,1050.33,1209,1050,1208Zm-544,1c0.333,0.67.667,1.33,1,2h-1v-2Zm-7,2,1,3v-3h-1Zm8,0c0.333,0.67.667,1.33,1,2h-1v-2Zm683,0c-1.67,2-3.33,4-5,6-5.17,55.85,26.76,95.35,64,113,22.13,10.49,52.04,7.17,73,18,13.95,7.21,23.3,21.6,30,36,2.07,4.45,1.02,8.82,4,12v-1c-1.15-3.88.41-3.64,3-6-4-3.81.05-9.71-3-16l-18-21c-24.33-18.03-62.55-25.27-92-47-23.73-17.51-34.67-47.72-46-75-0.33.67-.67,1.33-1,2C1199.13,1223.65,1196.92,1212.77,1190,1211Zm-137,1c0.33,0.67.67,1.33,1,2h-1v-2Zm139,1c0.84,1.81,1.82,1.17,0,2v-2Zm-138,1c0.33,0.67.67,1.33,1,2h-1v-2Zm521,0c0.67,1.33,1.33,2.67,2,4h-1v-1C1575.67,1216,1575.33,1215,1575,1214Zm-516,2c0.84,1.81,1.82,1.17,0,2v-2Zm-559,4v2h1v-2h-1Zm979,1h2v1C1480.33,1221.67,1479.67,1221.33,1479,1221Zm3,1h2v1C1483.33,1222.67,1482.67,1222.33,1482,1222Zm2,1h2v1C1485.33,1223.67,1484.67,1223.33,1484,1223Zm95,0c0.33,0.67.67,1.33,1,2h-1v-2Zm-89,2h2v1C1491.33,1225.67,1490.67,1225.33,1490,1225Zm2,1h2v1C1493.33,1226.67,1492.67,1226.33,1492,1226Zm88,0c0.33,0.67.67,1.33,1,2h-1v-2Zm-395,1c0.33,0.67.67,1.33,1,2h-1v-2Zm284,0c1,0.33,2,.67,3,1C1471,1227.67,1470,1227.33,1469,1227Zm25,0h2v1C1495.33,1227.67,1494.67,1227.33,1494,1227Zm-299,1c1,2.33,2,4.67,3,7h-1v-1C1196.33,1232,1195.67,1230,1195,1228Zm301,0h2v1C1497.33,1228.67,1496.67,1228.33,1496,1228Zm-510,1c0.333,0.67.667,1.33,1,2h-1v-2Zm200,0c2.07,2.77,1.5,2.66,2,7h-1v-2C1186.67,1232.33,1186.33,1230.67,1186,1229Zm301,0h2v1C1488.33,1229.67,1487.67,1229.33,1487,1229Zm94,0c1.46,1.42,1.01.76,2,3h-1v-1C1581.67,1230.33,1581.33,1229.67,1581,1229Zm-92,1h2v1C1490.33,1230.67,1489.67,1230.33,1489,1230Zm14,0c1,0.33,2,.67,3,1v1C1503.73,1231.03,1504.42,1231.45,1503,1230Zm-516,1c1.954,1.57,1.871,1.37,3,4h-1c-0.333-.33-0.667-0.67-1-1Q987.5,1232.5,987,1231Zm596,1c0.33,0.67.67,1.33,1,2h-1v-2Zm-90,1h2v1C1494.33,1233.67,1493.67,1233.33,1493,1233Zm-991,1q0.5,4.5,1,9Q502.5,1238.5,502,1234Zm1008,0h2v1C1511.33,1234.67,1510.67,1234.33,1510,1234Zm74,0c0.33,1,.67,2,1,3h-1v-3Zm-386,1c0.33,0.67.67,1.33,1,2h-1v-2Zm314,0h2v1C1513.33,1235.67,1512.67,1235.33,1512,1235Zm-521,1c0.333,0.67.667,1.33,1,2h-1v-2Zm197,0v0Zm309,0c0.84,1.81,1.82,1.17,0,2v-2Zm17,0h2v1C1515.33,1236.67,1514.67,1236.33,1514,1236Zm-357,1c0.33,1,.67,2,1,3h-1v-3Zm42,1c0.33,0.67.67,1.33,1,2h-1v-2Zm-160,1c1,0.33,2,.67,3,1v1C1039.73,1240.03,1040.42,1240.45,1039,1239Zm-55,1c0.843,1.81,1.82,1.17,0,2v-2Zm9,0c1.457,1.42,1,.76,2,3h-1v-1C993.667,1241.33,993.333,1240.67,993,1240Zm207,0c0.33,0.67.67,1.33,1,2h-1v-2Zm301,0c0.33,0.67.67,1.33,1,2h-1v-2Zm-981,2c0.333,0.67.667,1.33,1,2h-1v-2Zm475,1c0.333,0.67.667,1.33,1,2h-1v-2Zm-474,1c0.333,0.67.667,1.33,1,2h-1v-2Zm127,1c1.369,1.77,1.4,1.99,2,5h-1v-2Q648.5,1246.5,648,1245Zm348,0c0.843,1.81,1.82,1.17,0,2v-2Zm509,0c1,0.33,2,.67,3,1C1506.9,1248.96,1506.66,1246.57,1505,1245Zm74,1v2h1C1579.67,1247.33,1579.33,1246.67,1579,1246Zm-70,3c0.33,0.67.67,1.33,1,2h-1v-2Zm-1001,2c0.333,0.67.667,1.33,1,2h-1v-2Zm689,0c0.33,0.67.67,1.33,1,2h-1v-2Zm313,0c0.33,0.67.67,1.33,1,2h-1v-2Zm16,0c0.33,0.67.67,1.33,1,2h-1v-2Zm-1018,3c0.333,0.67.667,1.33,1,2h-1v-2Zm683,6c0.33,0.67.67,1.33,1,2h-1v-2Zm1,2c0.33,1,.67,2,1,3h-1v-3Zm-544,1c0.333,0.67.667,1.33,1,2h-1v-2Zm-502,2,1,3h-1v-3Zm496,0h2v1C643.333,1265.67,642.667,1265.33,642,1265Zm554,0c0.33,0.67.67,1.33,1,2h-1v-2Zm4,1h2v1C1201.33,1266.67,1200.67,1266.33,1200,1266Zm318,0h2C1518.52,1267.35,1519.78,1266.92,1518,1266Zm-316,1h2C1202.52,1268.35,1203.78,1267.92,1202,1267Zm167,1c0.33,0.67.67,1.33,1,2h-1v-2Zm151,0c2.77,1.27,3.22.71,4,4Zm-999,4q0.5,1.5,1,3h-1v-3Zm1003,0c1.46,1.42,1.01.76,2,3h-1v-1C1524.67,1273.33,1524.33,1272.67,1524,1272Zm-152,1c0.33,0.67.67,1.33,1,2h-1v-2Zm-442,1c0.667,0.33,1.333.67,2,1C931.333,1274.67,930.667,1274.33,930,1274Zm277,0c0.33,0.67.67,1.33,1,2h-1v-2Zm335,0c0.33,1,.67,2,1,3h-1v-3Zm-436,1v4h-1C1105.33,1277.67,1105.67,1276.33,1106,1275Zm105,0h2v1C1212.33,1275.67,1211.67,1275.33,1211,1275Zm315,0c1.46,1.42,1.01.76,2,3h-1v-1C1526.67,1276.33,1526.33,1275.67,1526,1275Zm20,0c0.33,0.67.67,1.33,1,2h-1v-2Zm-1025,1v0Zm420,1c0.667,0.67,1.333,1.33,2,2C942.333,1278.33,941.667,1277.67,941,1277Zm602,0c0.33,0.67.67,1.33,1,2h-1v-2Zm-336,2v0Zm4,0h2C1211.52,1280.35,1212.78,1279.92,1211,1279Zm11,0c0.33,0.67.67,1.33,1,2h-1v-2Zm-12,1c0.67,1,1.33,2,2,3h-2v-3Zm379,0q1.005,9,2,18h-1v-1Q1589.505,1288.495,1589,1280Zm-376,1c0.33,0.67.67,1.33,1,2h-1v-2Zm10,0c0.84,1.81,1.82,1.17,0,2v-2Zm-299,2c2.266,2.21,2.714.8,1,3v-1C924.667,1284.33,924.333,1283.67,924,1283Zm22,2c0.333,0.67.667,1.33,1,2h-1v-2Zm167,0c0.33,0.67.67,1.33,1,2h-1v-2Zm107,0c0.33,1,.67,2,1,3h-1v-3Zm160,1c1,0.33,2,.67,3,1v1C1380.73,1287.03,1381.42,1287.45,1380,1286Zm-452,1h2v1C929.333,1287.67,928.667,1287.33,928,1287Zm455,1c2.66,1.09,2.42,1.07,4,3l1,1C1385.04,1290.83,1384.69,1290.26,1383,1288Zm-169,1c1.46,1.42,1.01.76,2,3h-1v-1C1214.67,1290.33,1214.33,1289.67,1214,1289Zm13,0c2.66,1.09,2.42,1.07,4,3l1,1C1229.04,1291.83,1228.69,1291.26,1227,1289Zm319,2c1,0.33,2,.67,3,1v1C1546.73,1292.03,1547.42,1292.45,1546,1291Zm-436,1c0.33,0.67.67,1.33,1,2h-1v-2Zm278,0c1,0.33,2,.67,3,1C1389.9,1295.96,1389.66,1293.57,1388,1292Zm-156,1c3.08,2.32,3.67,1.94,2,4v-1C1232.54,1294.58,1232.99,1295.24,1232,1293Zm-13,1c2.21,1.42.57-.18,2,2l1,1h-2C1219.67,1296,1219.33,1295,1219,1294Zm-269,1c0.333,0.67.667,1.33,1,2h-1v-2Zm602,0c0.33,1,.67,2,1,3h-1v-3Zm-1394,2h2C158.521,1298.35,159.776,1297.92,158,1297Zm785,1h2v1C944.333,1298.67,943.667,1298.33,943,1298Zm280,0c1.67,0.33,3.33.67,5,1,0.67,1.67,1.33,3.33,2,5h-1Zm330,0c0.33,0.67.67,1.33,1,2h-1v-2Zm-486,1c0.33,0.67.67,1.33,1,2h-1v-2Zm151,0h2v1C1219.33,1299.67,1218.67,1299.33,1218,1299Zm20,0c0.84,1.81,1.82,1.17,0,2v-2Zm-732,1,1,3h-1v-3Zm458,1c0.667,0.67,1.333,1.33,2,2C965.333,1302.33,964.667,1301.67,964,1301Zm434,0c1,0.33,2,.67,3,1v1C1398.73,1302.03,1399.42,1302.45,1398,1301Zm3,2c2.27,0.97,1.58.55,3,2l1,1C1402.34,1304.91,1402.58,1304.93,1401,1303Zm-895,1,1,3h-1v-3Zm463,0c1.417,1.46.764,1.01,3,2C971,1305.33,970,1304.67,969,1304Zm251,0h2v1C1221.33,1304.67,1220.67,1304.33,1220,1304Zm13,2h2v1C1234.33,1306.67,1233.67,1306.33,1233,1306Zm-727,3v0Zm28,0c0.333,0.67.667,1.33,1,2h-1v-2Zm875,0c1.46,1.42,1.01.76,2,3h-1v-1C1409.67,1310.33,1409.33,1309.67,1409,1309Zm12,0h2v1C1422.33,1309.67,1421.67,1309.33,1421,1309Zm-174,1c2.27,2.21,2.71.8,1,3v-1C1247.67,1311.33,1247.33,1310.67,1247,1310Zm178,0h2v1C1426.33,1310.67,1425.67,1310.33,1425,1310Zm-380,1c1.33,0.33,2.67.67,4,1v1h-2Zm-880,1c0.333,0.67.667,1.33,1,2h-1v-2Zm369,0q1,4.5,2,9h-1v-1C534.667,1317.33,534.333,1314.67,534,1312Zm440,1h2v1C975.333,1313.67,974.667,1313.33,974,1313Zm72,0c0.84,1.81,1.82,1.17,0,2v-2Zm392,1h2v1C1439.33,1314.67,1438.67,1314.33,1438,1314Zm2,1c1.33,0.33,2.67.67,4,1v1C1440.87,1316.25,1441.73,1316.65,1440,1315Zm-934,1c0.333,0.67.667,1.33,1,2h-1v-2Zm723,0h2v1C1230.33,1316.67,1229.67,1316.33,1229,1316Zm3,1q5.505,2.505,11,5v1h-3Q1235.995,1320,1232,1317Zm212,0h2v1C1445.33,1317.67,1444.67,1317.33,1444,1317Zm-427,1c1,0.33,2,.67,3,1v1C1017.73,1319.03,1018.42,1319.45,1017,1318Zm429,0c1.67,0.33,3.33.67,5,1v1h-3Zm-449,1h2v1C998.333,1319.67,997.667,1319.33,997,1319Zm256,3h2v1C1254.33,1322.67,1253.67,1322.33,1253,1322Zm8,1h2v1C1262.33,1323.67,1261.67,1323.33,1261,1323Zm196,2h2v1C1458.33,1325.67,1457.67,1325.33,1457,1325Zm-924,1q0.5,1.5,1,3h-1v-3Zm81,0q0.5,1.5,1,3h-1v-3Zm376,0c2.335,1.73.841-.18,2,3h-1Q990.5,1327.5,990,1326Zm457,0c0.84,1.81,1.82,1.17,0,2v-2Zm110,1c0.33,1,.67,2,1,3h-1v-3Zm-96,1h2v1C1462.33,1328.67,1461.67,1328.33,1461,1328Zm9,0c0.33,0.67.67,1.33,1,2h-1v-2Zm-849,1c0.333,0.67.667,1.33,1,2h-1v-2Zm844,1h2v1C1466.33,1330.67,1465.67,1330.33,1465,1330Zm-172,1c0.33,0.67.67,1.33,1,2h-1v-2Zm264,0c1.51,2.37,1.89,1.78,0,5v-5Zm-937,1c0.333,0.67.667,1.33,1,2h-1v-2Zm820,0h2v1C1441.33,1332.67,1440.67,1332.33,1440,1332Zm2,1h2v1C1443.33,1333.67,1442.67,1333.33,1442,1333Zm27,0c0.33,0.67.67,1.33,1,2h-1v-2Zm-479,1c1.667,0.33,3.333.67,5,1v1h-3C991.333,1335.33,990.667,1334.67,990,1334Zm481,2c0.33,0.67.67,1.33,1,2h-1v-2Zm-940,1c0.333,0.67.667,1.33,1,2h-1v-2Zm941,1c0.33,0.67.67,1.33,1,2h-1v-2Zm3,3h2C1475.52,1342.35,1476.78,1341.92,1475,1341Zm7,3c1.46,1.42,1.01.76,2,3h-1v-1C1482.67,1345.33,1482.33,1344.67,1482,1344Zm-163,1c1,0.33,2,.67,3,1C1321,1345.67,1320,1345.33,1319,1345Zm-813,2c0.333,0.67.667,1.33,1,2h-1v-2Zm819,0c0.84,1.81,1.82,1.17,0,2v-2Zm143,0c1,0.33,2,.67,3,1v1C1468.73,1348.03,1469.42,1348.45,1468,1347Zm3,2c1,0.33,2,.67,3,1v1C1471.73,1350.03,1472.42,1350.45,1471,1349Zm15,0c0.33,0.67.67,1.33,1,2h-1v-2Zm-156,2c1,0.33,2,.67,3,1C1331.9,1354.96,1331.66,1352.57,1330,1351Zm145,1h2v1C1476.33,1352.67,1475.67,1352.33,1475,1352Zm-140,1c0.33,0.67.67,1.33,1,2h-1v-2Zm-732,2c1.431,2.16,1.92,2.68,0,6v-6Zm896,1c1.95,1.57,1.87,1.37,3,4h-1l-1-1C1499.67,1358,1499.33,1357,1499,1356Zm-968,1c0.333,0.67.667,1.33,1,2h-1v-2Zm807,0h2v1C1339.33,1357.67,1338.67,1357.33,1338,1357Zm134,0c1,0.33,2,.67,3,1C1473.9,1360.96,1473.66,1358.57,1472,1357Zm30,3c2.27,2.21,2.71.8,1,3v-1C1502.67,1361.33,1502.33,1360.67,1502,1360Zm-161,1a20.717,20.717,0,0,1,5,9h-1v-1C1342.35,1366.3,1341.01,1363.73,1341,1361Zm-740,1c0.333,0.67.667,1.33,1,2h-1v-2Zm586,0c-4.28,13.03.67,47.01-7,60-0.33-.67-0.67-1.33-1-2v2c5.19,6.94-16.36,67.04-25,84-3.05,5.99-11.93,15.78-11,22,0.33,1,.67,2,1,3,33.49-8.36,54.75-22.31,60-62,0.81-6.13-1.96-15.5-1-20-2.83-.48-2.25-5.13-2-11-3.18-6.2-.34-14.63-1-19-1.1-7.25-5.47-17.96-6-22v-1c1.62-2.11,1.11.68,2-2q-3.495-16.005-7-32h-2Zm190,2v3c17.88,12.88,35.83,48.57,42,69l3,30h3a20.293,20.293,0,0,1,4-10c0.33,0.67.67,1.33,1,2,4.73-40.38,8.88-52.8-23-76-7.39-5.38-12.64-12.36-23-15v1h1v3Q1381,1367.505,1377,1364Zm-778,2c2.335,1.73.841-.18,2,3h-1Q599.5,1367.5,599,1366Zm788,3h2v1C1388.33,1369.67,1387.67,1369.33,1387,1369Zm-41,1c0.33,0.67.67,1.33,1,2h-1v-2Zm1,2c1.46,1.42,1.01.76,2,3h-1v-1C1347.67,1373.33,1347.33,1372.67,1347,1372Zm44,0h2v1C1392.33,1372.67,1391.67,1372.33,1391,1372Zm-4,1c1.46,1.42,1.01.76,2,3h-1v-1C1387.67,1374.33,1387.33,1373.67,1387,1373Zm122,0c0.33,0.67.67,1.33,1,2h-1v-2Zm-160,2c0.33,1,.67,2,1,3h-1v-3Zm-750,1q0.5,1.5,1,3S596.335,1377.28,599,1376Zm912,0c0.33,0.67.67,1.33,1,2h-1v-2Zm-112,1h2C1399.52,1378.35,1400.78,1377.92,1399,1377Zm-209,2c0.33,0.67.67,1.33,1,2h-1v-2Zm162,3c0.33,0.67.67,1.33,1,2h-1v-2Zm-847,1c0.333,0.67.667,1.33,1,2h-1v-2Zm686,0v0Zm162,1c0.33,0.67.67,1.33,1,2h-1v-2Zm1,2c0.33,1,.67,2,1,3h-1v-3Zm49,0c0.33,0.67.67,1.33,1,2h-1v-2Zm5,0c1,0.33,2,.67,3,1C1409.9,1389.96,1409.66,1387.57,1408,1386Zm-216,2c0.33,0.67.67,1.33,1,2h-1v-2Zm-592,1c0.333,0.67.667,1.33,1,2h-1v-2Zm806,0c0.33,0.67.67,1.33,1,2h-1v-2Zm6,1,6,3v1C1414.02,1393.1,1413.96,1392.62,1412,1390Zm-220,1h2C1192.52,1392.35,1193.78,1391.92,1192,1391Zm328,0c0.33,0.67.67,1.33,1,2h-1v-2Zm-331,1c1.79,1.89,1.46,1.36,2,5h-1C1189.67,1395.33,1189.33,1393.67,1189,1392Zm-593,2c0.333,0.67.667,1.33,1,2h-1v-2Zm815,1c0.33,1,.67,2,1,3h-1v-3Zm5,0c1.46,1.42,1.01.76,2,3h-1v-1C1416.67,1396.33,1416.33,1395.67,1416,1395Zm-818,1c0.333,0.67.667,1.33,1,2h-1v-2Zm927,2c0.33,0.67.67,1.33,1,2h-1v-2Zm-931,1q0.5,1.5,1,3h-1v-3Zm824,0c1,0.33,2,.67,3,1C1419.9,1402.96,1419.66,1400.57,1418,1399Zm-823,3c1.8,0.1,2.447,2.8,1,3Q595.5,1403.5,595,1402Zm825,2c0.33,0.67.67,1.33,1,2h-1v-2Zm2,3c1.46,1.42,1.01.76,2,3h-1v-1C1422.67,1408.33,1422.33,1407.67,1422,1407Zm-234,2c0.33,0.67.67,1.33,1,2h-1v-2Zm229,0c0.33,0.67.67,1.33,1,2h-1v-2Zm7,1c0.33,0.67.67,1.33,1,2h-1v-2Zm-833,4h2v1C592.333,1414.67,591.667,1414.33,591,1414Zm839,0c0.33,0.67.67,1.33,1,2h-1v-2Zm1,2c0.33,0.67.67,1.33,1,2h-1v-2Zm-18,2c0.33,0.67.67,1.33,1,2h-1v-2Zm43,0v2C1457.35,1418.52,1456.92,1419.78,1456,1418Zm-31,1,3,6h-1v-1C1425.63,1422.23,1425.6,1422.01,1425,1419Zm-10,2c0.33,0.67.67,1.33,1,2h-1v-2Zm-221,1c0.33,0.67.67,1.33,1,2h-1v-2Zm222,1c0.33,0.67.67,1.33,1,2h-1v-2Zm1,3c0.33,1,.67,2,1,3h-1v-3Zm40,0v4c2.21,1.42.57-.18,2,2h1Zm-38,5c0.33,0.67.67,1.33,1,2h-1v-2Zm39,2c0.33,1.67.67,3.33,1,5-2.63.85-1.12-.69-2,2,0.67,0.33,1.33.67,2,1l1,1c0.33-2.67.67-5.33,1-8C1460,1433.67,1459,1433.33,1458,1433Zm-943,6c0.333,0.67.667,1.33,1,2h-1v-2Zm-1,2v0Zm909,0c2.2,3.27,1.57,2.93,1,7h-1v-7Zm-234,1c0.33,0.67.67,1.33,1,2h-1v-2Zm-9,3c0.33,0.67.67,1.33,1,2h-1v-2Zm7,0c0.33,0.67.67,1.33,1,2h-1v-2Zm269,1h2C1456.52,1447.35,1457.78,1446.92,1456,1446Zm-272,1c0.33,1,.67,2,1,3h-1v-3Zm4,0c0.84,1.81,1.82,1.17,0,2v-2Zm8,0c0.33,0.67.67,1.33,1,2h-1v-2Zm-685,1c1.672,1.74,1.193.89,2,4h-1v-2C511.667,1449.33,511.333,1448.67,511,1448Zm944,0c0.84,1.81,1.82,1.17,0,2v-2Zm52,3c0.33,1,.67,2,1,3h-1v-3Zm-569,1c0.552,9.73-14.681,43.83-21,56-3.244,6.25-9.756,10.64-11,19,1.333,0.33,2.667.67,4,1q6-2.505,12-5c8.017-5.11,12.247-15.19,15-19q-0.5-9-1-18c1.7-7.2,5.924-19.58,6-32C940.667,1453.33,939.333,1452.67,938,1452Zm253,0c1.67,1.74,1.19.89,2,4h-1v-2C1191.67,1453.33,1191.33,1452.67,1191,1452Zm335,0h2v1C1527.33,1452.67,1526.67,1452.33,1526,1452Zm-347,2c0.33,0.67.67,1.33,1,2h-1v-2Zm-3,3c0.33,1,.67,2,1,3h-1v-3Zm17,1c2.55,1.56,1.85.99,3,4h-1v-1C1194.33,1460,1193.67,1459,1193,1458Zm-259,16c0.333,0.67.667,1.33,1,2h-1v-2Zm594,0c0.33,0.67.67,1.33,1,2h-1v-2Zm-334,1c0.33,0.67.67,1.33,1,2h-1v-2Zm-685,1c0.843,1.81,1.82,1.17,0,2v-2Zm1018,4h2C1527.52,1481.35,1528.78,1480.92,1527,1480Zm-355,1c0.33,0.67.67,1.33,1,2h-1v-2Zm25,0c1.46,1.42,1.01.76,2,3h-1v-1C1197.67,1482.33,1197.33,1481.67,1197,1481Zm-935,2c0.667,0.67,1.333,1.33,2,2C263.333,1484.33,262.667,1483.67,262,1483Zm234,5q2.5,11.505,5,23h-1v-1C496.716,1504.65,495.965,1496.45,496,1488Zm958,0c1.93,2.04,1.87,2.76,2,7h-1C1454.67,1492.67,1454.33,1490.33,1454,1488Zm-278,4h2v1C1177.33,1492.67,1176.67,1492.33,1176,1492Zm334,0c0.33,0.67.67,1.33,1,2h-1v-2Zm-339,4h2v1C1172.33,1496.67,1171.67,1496.33,1171,1496Zm283,0h2v2h-2v-2Zm-284,3h2v1C1171.33,1499.67,1170.67,1499.33,1170,1499Zm256,0c1.67,1,3.33,2,5,3h-4C1426.67,1501,1426.33,1500,1426,1499Zm28,0,3,3v2h-1v-1C1455.33,1501.67,1454.67,1500.33,1454,1499Zm52,0c1,0.33,2,.67,3,1v1C1506.73,1500.03,1507.42,1500.45,1506,1499Zm-340,1c0.33,1.67.67,3.33,1,5h-2C1165.33,1503.33,1165.67,1501.67,1166,1500Zm6,0h2v1C1173.33,1500.67,1172.67,1500.33,1172,1500Zm-668,1c0.333,0.67.667,1.33,1,2h-1v-2Zm928,0h4v2h-2Zm21,4c0.33,0.67.67,1.33,1,2h-1v-2Zm48,1h2v1C1502.33,1506.67,1501.67,1506.33,1501,1506Zm-345,2c0.33,0.67.67,1.33,1,2h-1v-2Zm284,4c0.33,1,.67,2,1,3h-1v-3Zm5,0h2v1C1446.33,1512.67,1445.67,1512.33,1445,1512Zm-520,1h2C925.521,1514.35,926.776,1513.92,925,1513Zm515,3c0.33,0.67.67,1.33,1,2h-1v-2Zm62,2h2v1C1503.33,1518.67,1502.67,1518.33,1502,1518Zm3,11h2v1C1506.33,1529.67,1505.67,1529.33,1505,1529Zm-363,2,2,2Zm291,0c2.34,1.73.84-.18,2,3h-1C1433.67,1533,1433.33,1532,1433,1531Zm71,0c0.33,1,.67,2,1,3h-1v-3Zm-76,2h2v1C1429.33,1533.67,1428.67,1533.33,1428,1533Z"/>
</svg>
